<?xml version="1.0" standalone="no"?>
<!DOCTYPE svg PUBLIC "-//W3C//DTD SVG 1.1//EN" "http://www.w3.org/Graphics/SVG/1.1/DTD/svg11.dtd" >
<!--
2013-9-30: Created.
-->
<svg>
<metadata>
Created by iconfont
</metadata>
<defs>

<font id="iconfont" horiz-adv-x="1024" >
  <font-face
    font-family="iconfont"
    font-weight="500"
    font-stretch="normal"
    units-per-em="1024"
    ascent="896"
    descent="-128"
  />
    <missing-glyph />
    
    <glyph glyph-name="x" unicode="x" horiz-adv-x="1001"
d="M281 543q-27 -1 -53 -1h-83q-18 0 -36.5 -6t-32.5 -18.5t-23 -32t-9 -45.5v-76h912v41q0 16 -0.5 30t-0.5 18q0 13 -5 29t-17 29.5t-31.5 22.5t-49.5 9h-133v-97h-438v97zM955 310v-52q0 -23 0.5 -52t0.5 -58t-10.5 -47.5t-26 -30t-33 -16t-31.5 -4.5q-14 -1 -29.5 -0.5
t-29.5 0.5h-32l-45 128h-439l-44 -128h-29h-34q-20 0 -45 1q-25 0 -41 9.5t-25.5 23t-13.5 29.5t-4 30v167h911zM163 247q-12 0 -21 -8.5t-9 -21.5t9 -21.5t21 -8.5q13 0 22 8.5t9 21.5t-9 21.5t-22 8.5zM316 123q-8 -26 -14 -48q-5 -19 -10.5 -37t-7.5 -25t-3 -15t1 -14.5
t9.5 -10.5t21.5 -4h37h67h81h80h64h36q23 0 34 12t2 38q-5 13 -9.5 30.5t-9.5 34.5q-5 19 -11 39h-368zM336 498v228q0 11 2.5 23t10 21.5t20.5 15.5t34 6h188q31 0 51.5 -14.5t20.5 -52.5v-227h-327z" />
    

    
    <glyph glyph-name="dianji" unicode="&#983751;" d="M775.779 477.828l-2.051 0c-15.159 0-27.6-4.355-39.583-11.771-10.486 30.584-37.159 52.615-71.513 52.615-15.16 0-29.638-4.354-41.62-11.77-10.487 30.583-37.172 52.615-71.527 52.615-13.399 0-25.85-3.357-36.873-9.255l0 78.691c0 42.861-32.418 77.606-75.59 77.606-43.173 0-78.17-34.745-78.17-77.606l0-301.282-47.49 47.295c-30.528 30.306-84.558 25.992-110.55 0s-43.038-78.308-5.818-115.528l218.306-216.875c4.504-4.471 9.455-8.2 14.663-11.353 39.803-32.47 85.412-51.692 181.857-51.692 220.324 0 240.728 118.865 240.728 265.492L850.548 400.223C850.547 443.083 818.952 477.828 775.779 477.828zM809.403 245.012c0-124.069-0.593-224.647-199.585-224.647-84.298 0-134.907 18.796-173.246 56.858L229.904 282.545c-18.285 18.285-13.687 41.664 1.282 56.633 14.968 14.968 42.441 15.486 56.902 1.131 0 0 36.259-36.045 67.498-67.1 23.641-23.502 44.408-44.145 44.408-44.145l0 391.72c0 20.302 16.578 36.76 37.028 36.76 20.449 0 34.448-16.459 34.448-36.76l0-249.154 0.415 0c-0.27-1.32-0.415-2.685-0.415-4.085 0-11.278 9.21-20.423 20.571-20.423 11.36 0 20.57 9.144 20.57 20.423 0 1.4-0.144 2.765-0.415 4.085l0.415 0L512.611 473.743c0 20.302 14.795 36.761 35.245 36.761 0 0 36.232 0.49 36.232-36.761l0-134.787 0.415 0c-0.27-1.321-0.415-2.686-0.415-4.085 0-11.279 9.21-20.423 20.57-20.423 11.361 0 20.571 9.143 20.571 20.423 0 1.399-0.144 2.764-0.415 4.085l0.415 0 0 93.942c0 20.303 14.559 36.762 35.01 36.762 0 0 36.983-2.303 36.983-36.762l0-118.449 0.415 0c-0.269-1.32-0.415-2.686-0.415-4.085 0-11.279 9.21-20.423 20.571-20.423s20.055 9.143 20.055 20.423c0 1.399-0.136 2.765-0.392 4.085l0.392 0 0 80.872c0 20.302 15.255 36.761 35.704 36.761 0 0 35.851 1.45 35.851-36.761C809.403 395.321 809.403 278.046 809.403 245.012zM328.307 513.245l0 68.631c-6.531 14.641-10.24 30.817-10.24 47.884 0 65.037 52.723 117.76 117.76 117.76s117.76-52.723 117.76-117.76c0-8.884-1.05-17.509-2.935-25.82 14.812-0.578 28.176-6.726 37.904-16.597 3.771 13.518 5.99 27.685 5.99 42.417 0 87.658-71.062 158.72-158.72 158.72s-158.72-71.062-158.72-158.72C277.107 583.64 296.898 542.245 328.307 513.245z"  horiz-adv-x="1024" />

    
    <glyph glyph-name="daohang" unicode="&#983081;" d="M559.446001-78.871069c-1.332399 0-2.662752 0.084934-4.021758 0.282433-12.770361 1.784646-22.823733 11.835559-24.608452 24.635073l-56.265727 401.479861L73.720976 403.888979c-12.800038 1.783623-22.823733 11.836583-24.607429 24.635073-1.81235 12.798491 5.096274 25.200962 16.877057 30.453592l866.448392 385.352555c10.931405 4.799306 23.702789 2.478448 32.168948-5.988388 8.468206-8.452509 10.817813-21.252023 5.976353-32.209586L585.837126-61.681572C581.135864-72.230835 570.744788-78.871069 559.446001-78.871069zM181.693413 447.142086 504.142221 401.794271c12.799015-1.784646 22.823733-11.836583 24.607429-24.635073l45.279061-322.945203L887.357441 760.954281 181.693413 447.142086z"  horiz-adv-x="1024" />

    
    <glyph glyph-name="daohangliebiao" unicode="&#983132;" d="M930.960258 351.773018 350.861046 351.773018c-17.813421 0-32.227279 14.414291-32.227279 32.226982 0 17.797341 14.413858 32.226982 32.227279 32.226982L930.960258 416.226982c17.813421 0 32.228303-14.429641 32.228303-32.226982C963.188561 366.187309 948.773679 351.773018 930.960258 351.773018zM930.960258 609.583758 350.861046 609.583758c-17.813421 0-32.227279 14.429641-32.227279 32.226982s14.413858 32.226982 32.227279 32.226982L930.960258 674.037722c17.813421 0 32.228303-14.429641 32.228303-32.226982S948.773679 609.583758 930.960258 609.583758zM125.267021 61.735295c-35.595118 0-64.455582 28.859281-64.455582 64.451918 0 35.593659 28.860464 64.452941 64.455582 64.452941s64.455582-28.859281 64.455582-64.452941C189.722603 90.594577 160.862139 61.735295 125.267021 61.735295zM125.267021 319.547059c-35.595118 0-64.455582 28.859281-64.455582 64.452941 0 35.593659 28.860464 64.452941 64.455582 64.452941s64.455582-28.859281 64.455582-64.452941C189.722603 348.406341 160.862139 319.547059 125.267021 319.547059zM125.267021 577.357799c-35.595118 0-64.455582 28.859281-64.455582 64.452941s28.860464 64.452941 64.455582 64.452941 64.455582-28.859281 64.455582-64.452941S160.862139 577.357799 125.267021 577.357799zM350.861046 158.415218 930.960258 158.415218c17.813421 0 32.228303-14.414291 32.228303-32.226982 0-17.811668-14.414882-32.225959-32.228303-32.225959L350.861046 93.962278c-17.813421 0-32.227279 14.414291-32.227279 32.225959C318.633766 144.000927 333.047625 158.415218 350.861046 158.415218z"  horiz-adv-x="1024" />

    
    <glyph glyph-name="msnui-alarm-circle" unicode="&#59223;" d="M570.61 173.235c0-6.128-2.101-12.278-6.281-16.939-4.18-4.684-9.696-7.025-15.167-7.025h-74.302c-5.493 0-10.965 2.341-15.167 7.025-4.179 4.661-6.259 10.81-6.259 16.939v39.941c0 6.128 2.079 12.278 6.259 16.939 4.202 4.684 9.674 7.025 15.167 7.025h74.302c5.493 0 10.987-2.341 15.167-7.025 4.18-4.661 6.281-10.81 6.281-16.939v-39.941zM511.999 834.976c-247.532 0-448.226-200.665-448.226-448.208s200.695-448.208 448.226-448.208c247.553 0 448.226 200.666 448.226 448.208 0 247.544-200.673 448.208-448.226 448.208zM511.999 41.092c-190.912 0-345.669 154.772-345.669 345.676 0 190.926 154.757 345.676 345.669 345.676 190.934 0 345.713-154.751 345.713-345.676 0-190.904-154.778-345.676-345.713-345.676zM564.307 304.261c-4.202-3.129-9.717-4.705-15.21-4.683l-73.866 0.263c-5.449 0.021-10.899 1.597-15.058 4.705-4.158 3.13-6.237 7.2-6.26 11.293l-0.481 112.817v177.137c0 4.093 2.079 8.185 6.259 11.337 4.18 3.129 9.674 4.684 15.146 4.684h74.238c5.472 0 10.943-1.554 15.123-4.684 4.18-3.13 6.281-7.244 6.281-11.337v-175.847l0.131-114.306c0-4.114-2.1-8.25-6.303-11.38z"  horiz-adv-x="1024" />

    
    <glyph glyph-name="wenjuandiaocha" unicode="&#59115;" d="M877.714286 420.571429l0-402.285714L109.714286 18.285714 109.714286 749.714286l585.142857 0L694.857143 822.857143 73.142857 822.857143c-20.214857 0-36.571429-16.374857-36.571429-36.571429l0-804.571429c0-20.214857 16.356571-36.571429 36.571429-36.571429l841.142857 0c20.214857 0 36.571429 16.356571 36.571429 36.571429L950.857143 420.571429 877.714286 420.571429zM1024 835.428571C1024 848.6784 1013.249829 859.428571 1000 859.428571c-6.286629 0-11.7504-2.731886-16.071314-6.696229l-471.572114-529.517714L329.142857 505.250743l-127.285029-124.679314 51.856457 0 257.929143-240.786286L1020.642743 823.786057C1022.6432 827.285943 1024 831.1424 1024 835.428571z"  horiz-adv-x="1024" />

    
    <glyph glyph-name="guanbibofang" unicode="&#58909;" d="M512 832C264.576 832 64 631.424 64 384s200.576-448 448-448 448 200.576 448 448S759.424 832 512 832zM512 21.312c-200.32 0-362.688 162.368-362.688 362.688S311.68 746.688 512 746.688 874.688 584.32 874.688 384 712.32 21.312 512 21.312zM362.688 234.688l298.624 0L661.312 533.312 362.688 533.312 362.688 234.688z"  horiz-adv-x="1024" />

    
    <glyph glyph-name="fanhuidingbu" unicode="&#58895;" d="M512.750933 738.954667c241.732267 0 439.5008-197.2224 439.5008-438.272s-197.802667-438.237867-439.5008-438.237867c-241.732267 0-439.5008 197.188267-439.5008 438.237867S271.018667 738.954667 512.750933 738.954667M512.750933 812C227.054933 812 0 578.254933 0 300.682667c0-277.538133 227.054933-511.2832 512.750933-511.2832 285.696 0 512.7168 226.4064 512.7168 511.2832C1025.467733 585.5936 798.446933 812 512.750933 812L512.750933 812zM563.985067 8.535467 563.985067 402.980267l175.8208-175.342933 65.911467 73.045333-292.9664 292.181333-293.000533-292.181333 65.9456-73.045333 175.752533 175.342933 0-394.4448L563.985067 8.535467z"  horiz-adv-x="1026" />

    
    <glyph glyph-name="unie604" unicode="&#59090;" d="M704.128 884c-176.736 0-320-143.296-320-320 0-41.12 8.608-80.032 22.816-116.128l-388.768-388.736c-11.232-11.264-18.176-21.952-18.176-39.136l0-96c0-34.24 29.728-64 64-64l96 0c17.152 0 28 6.88 39.232 18.048l45.92 45.952 74.976 0c35.328 0 64 28.672 64 64l0 64 64 0c35.328 0 64 28.672 64 64l0 75.008 75.808 75.872c36.128-14.24 75.008-22.88 116.192-22.88 176.672 0 320 143.296 320 320s-143.328 320-320 320zM704.128 308c-47.36 0-91.264 13.76-129.312 36.224l-11.008-10.976-96.96-96.992c-12-12-18.752-28.256-18.752-45.248l0-75.008-64 0c-35.328 0-64-28.64-64-64l0-64-74.944 0c-16.96 0-33.248-6.752-45.248-18.752l-45.376-45.376-90.432 0.128-0.096 91.2 373.28 372.608c0 0 0-0.032 0.032-0.064l47.008 47.008c-22.464 38.048-36.224 81.92-36.224 129.28 0 141.376 114.656 256 256 256s256-114.624 256-256-114.592-256.032-255.968-256.032zM890.24 620.352c-35.872 49.984-79.552 93.6-129.76 129.728-8.16 5.92-18.72 7.392-28.224 4.064-44.448-15.648-74.88-46.048-90.432-90.496-1.184-3.328-1.76-6.784-1.76-10.208 0-6.368 1.984-12.672 5.824-18.016 36-50.048 79.616-93.696 129.696-129.696 8.192-5.888 18.688-7.392 28.192-4.096 44.512 15.552 74.944 46.016 90.56 90.496 1.184 3.328 1.76 6.784 1.76 10.208-0.032 6.368-2.048 12.672-5.856 18.016zM794.24 531.68c-47.296 34.016-88.48 75.2-122.24 121.376 12.384 35.296 35.552 58.464 69.824 71.072 47.328-34.08 88.448-75.168 122.112-121.952-12.512-35.04-35.616-58.08-69.696-70.496z"  horiz-adv-x="1025" />

    
    <glyph glyph-name="gerenzhongxinzhanghuanquan" unicode="&#58897;" d="M859.553531 588.53265c-131.266167 0.273397-251.874989 45.271187-347.712244 120.449085-95.882309-75.019185-216.28634-120.176713-347.417344-120.449085-87.404969-286.237962 63.019433-593.928847 347.531004-697.515408C796.534098-5.396197 946.982051 302.294688 859.553531 588.53265zM201.448179 297.817948l310.551821 0L512 651.019625c92.522706-64.419182 199.064407-101.307233 311.691485-107.939403 19.76237-82.987619 18.331902-166.81181-1.178574-245.262275L512 297.817948 512-59.126293c-0.015359-0.006144-0.029695-0.012287-0.045054-0.018431C352.376368 4.859756 240.559241 140.535082 201.448179 297.817948z"  horiz-adv-x="1024" />

    
    <glyph glyph-name="zhucedenglumima" unicode="&#58921;" d="M791.261743 439.629848 325.827211 439.629848l0 93.08793c0 102.656808 83.517004 186.173813 186.173813 186.173813 102.656808 0 186.173813-83.517004 186.173813-186.173813 0-12.852708 10.419786-23.271471 23.272495-23.271471s23.272495 10.418762 23.272495 23.271471c0 62.162381-24.207367 120.603703-68.159697 164.557057-43.954378 43.953354-102.394675 68.159697-164.558081 68.159697s-120.603703-24.206343-164.558081-68.159697-68.159697-102.394675-68.159697-164.557057l0-93.08793-46.543965 0c-76.99235 0-139.630872-62.637497-139.630872-139.629848l0-325.804684c0-76.991326 62.638521-139.629848 139.630872-139.629848l558.522462 0c76.99235 0 139.630872 62.638521 139.630872 139.629848L930.893638 300C930.892615 376.991326 868.254093 439.629848 791.261743 439.629848zM884.348649-25.805708c0-51.327892-41.75799-93.085882-93.086906-93.085882L232.739281-118.891591c-51.327892 0-93.086906 41.75799-93.086906 93.085882L139.652375 300c0 51.327892 41.759014 93.086906 93.086906 93.086906l558.522462 0c51.328916 0 93.086906-41.759014 93.086906-93.086906L884.348649-25.805708zM512.001024 300c-64.160121 0-116.359401-52.198256-116.359401-116.358377 0-56.23367 40.098156-103.275278 93.202613-114.042186-0.075773-0.761824-0.115707-1.534912-0.115707-2.317215l0-69.815436c0-12.852708 10.418762-23.272495 23.271471-23.272495 12.852708 0 23.271471 10.419786 23.271471 23.272495l0 69.815436c0 0.782303-0.039934 1.555391-0.114683 2.318239 53.103434 10.765884 93.20159 57.807492 93.20159 114.041162C628.359401 247.80072 576.160121 300 512.001024 300zM512.001024 113.826187c-38.496687 0-69.815436 31.318749-69.815436 69.815436s31.318749 69.815436 69.815436 69.815436c38.495663 0 69.814412-31.318749 69.814412-69.815436S550.496687 113.826187 512.001024 113.826187z"  horiz-adv-x="1024" />

    
    <glyph glyph-name="womenchengnuo" unicode="&#58887;" d="M943.175695 571.018553c-1.052982 0.169869-108.550275 31.321356-236.403175 89.849354-90.545202 41.329291-153.12754 82.132602-182.700065 102.534258l-11.537777 9.667174-11.539824-9.667174C471.420281 742.643376 408.99451 702.01198 318.294788 660.867908 190.224947 602.154691 82.943572 571.188422 81.860914 571.018553l-12.991895-3.758604 1.082658-13.425777c0.896416-11.104919 24.530696-275.112802 153.311735-464.634226 109.818151-161.970952 243.084341-241.428631 281.322224-262.184351l7.764847-4.299933 7.763824 4.299933c38.234813 20.571525 171.502026 100.396571 281.320177 262.184351 128.254036 189.167361 152.2301 453.359438 153.311735 464.634226l1.083681 13.425777L943.175695 571.018553zM774.210445 107.80877C675.034678-38.233398 557.234739-114.288584 512.534677-139.513082c-44.579311 25.054629-162.687266 101.279684-261.677814 247.321852C143.172305 266.364949 111.063003 487.788967 104.596731 543.455801c33.348526 10.379395 123.70851 39.905872 227.740888 87.685062C418.027234 670.518708 479.524866 708.816966 512.689197 731.553807c33.038464-22.551622 94.349855-61.220317 180.349531-100.412944 103.877859-47.77919 194.609303-77.305667 227.802286-87.685062C913.973606 487.788967 882.048499 266.364949 774.210445 107.80877zM356.714819 566.022773c-21.345144-87.497796-54.661947-165.067476-99.95041-232.67527 3.990894-13.270235 8.630564-26.526143 13.982456-39.788192 15.993253 19.897166 30.656207 43.083238 43.958164 69.62473l0-264.531815 36.009122 0L350.714152 438.741901c15.96153 38.436404 29.974685 77.568656 41.946344 117.336382L356.714819 566.022773zM738.480686 317.430998l-159.901827 0 0 51.707662-35.975353 0 0-51.707662L382.700657 317.430998l0-31.851429 127.915321 0c-31.987528-54.373375-79.286788-98.128925-141.898801-131.246183 9.279341-9.265014 17.972327-18.561751 25.954115-27.841092 61.280692 37.09178 110.592794 88.798419 147.931191 155.107637l0-182.947705 35.975353 0L578.577836 281.599931c29.296233-63.634296 75.94467-112.045889 139.916657-145.177474 6.65149 10.641361 14.014178 19.892049 21.994943 27.841092-55.991222 26.510794-100.660584 66.942645-133.946688 121.31602l131.935891 0L738.478639 317.430998zM426.657798 381.07962l269.844821 0L696.502619 546.131747 426.657798 546.131747 426.657798 381.07962zM462.635197 512.319663l195.880249 0 0-97.42796L462.635197 414.891703 462.635197 512.319663z"  horiz-adv-x="1024" />

    
    <glyph glyph-name="iconfontduigou" unicode="&#58972;" d="M936.881338 512.402415c12.100596-40.825824 18.235316-83.314521 18.235316-126.288265 0-59.892065-11.733229-118.001531-34.874275-172.71362-22.347984-52.837392-54.338582-100.287077-95.082542-141.030014-40.74396-40.74396-88.193645-72.734558-141.031037-95.082542-54.711066-23.141046-112.821555-34.874275-172.71362-34.874275-59.893088 0-118.002554 11.733229-172.71362 34.874275-52.837392 22.347984-100.287077 54.338582-141.031037 95.082542-40.74396 40.742936-72.734558 88.193645-95.082542 141.030014-23.141046 54.712089-34.874275 112.821555-34.874275 172.71362 0 59.893088 11.733229 118.002554 34.874275 172.71362 22.347984 52.837392 54.338582 100.288101 95.082542 141.03206 40.74396 40.74396 88.193645 72.734558 141.031037 95.082542 54.711066 23.141046 112.820532 34.874275 172.71362 34.874275 113.524566 0 221.539652-42.844807 304.146045-120.641661l-20.275789-21.529339C718.187501 760.255363 617.372398 800.243099 511.415181 800.243099c-228.350778 0-414.127925-185.777147-414.127925-414.128949 0-228.349755 185.777147-414.126902 414.127925-414.126902S925.543106 157.764396 925.543106 386.114151c0 40.125883-5.725398 79.788208-17.016559 117.883851L936.881338 512.402415zM237.626537 426.129516l-20.555152-20.813025 247.734244-245.99974 492.320798 527.912411-22.439058 20.952194L463.514217 202.914712 237.626537 426.129516z"  horiz-adv-x="1024" />

    
    <glyph glyph-name="xiangqing" unicode="&#58918;" d="M527.63663-65.280404c211.094766 0 382.205888 171.123402 382.205888 382.204865 0 211.080439-171.110099 382.203842-382.204865 382.203842-211.095789 0-382.204865-171.123402-382.204865-382.203842S316.541865-65.280404 527.63663-65.280404zM527.637654 651.35423c184.687326 0 334.428745-149.730163 334.428745-334.428745-0.001023-184.698582-149.742443-334.429769-334.429769-334.429769-184.686303 0.001023-334.428745 149.73221-334.428745 334.429769C193.206862 501.62202 342.949304 651.35423 527.637654 651.35423zM551.525714 388.586594l-47.777143 0 0-238.877529 47.77612 0L551.525714 388.586594zM551.525714 484.137811l-47.777143 0 0-47.77612 47.777143 0L551.525714 484.137811z"  horiz-adv-x="1024" />

    
    <glyph glyph-name="shangpin" unicode="&#58905;" d="M749.220285-63.524546 274.789948-63.524546c-51.92051 0-99.466386 40.037878-108.315938 91.192955l-68.476581 414.905638c-4.470825 26.03905 2.27174 52.176336 18.532075 71.474868 16.235776 19.296485 40.838104 30.356378 67.419506 30.356378L840.097038 544.405293c26.643823 0 51.251268-11.087523 67.481927-30.385031 16.229636-19.301602 22.939455-45.438888 18.370393-71.703065l-68.409043-414.423661C848.623225-23.486668 801.081443-63.524546 749.220285-63.524546L749.220285-63.524546zM183.947987 480.466052c-7.825222 0-14.44192-2.681062-18.561751-7.607258-4.1536-4.919033-5.689582-11.916401-4.378727-19.681248l68.506257-414.901545c3.452635-20.067035 24.636097-37.897122 45.275159-37.897122l474.430336 0c20.643156 0 41.827641 17.863856 45.342698 38.151925l68.410066 414.427754c1.375324 7.984858-0.160659 14.951527-4.28049 19.871583-4.154623 4.920056-10.770298 7.635911-18.59552 7.635911L183.947987 480.466052 183.947987 480.466052zM318.406329 288.621722c-35.274388 0-63.937195 28.66383-63.937195 63.910589 0 35.239596 28.662807 63.902402 63.937195 63.902402 35.210943 0 63.874773-28.66383 63.874773-63.902402C382.281101 317.319322 353.617271 288.621722 318.406329 288.621722L318.406329 288.621722zM318.406329 352.532311c0 0-0.063445 0-0.097214-0.033769l0.063445-31.921014L318.406329 352.532311 318.406329 352.532311zM703.688275 288.621722c-35.240619 0-63.904449 28.66383-63.904449 63.910589 0 35.239596 28.664853 63.902402 63.904449 63.902402 35.244712 0 63.907519-28.66383 63.907519-63.902402C767.595794 317.319322 738.932987 288.621722 703.688275 288.621722L703.688275 288.621722zM703.722044 352.532311l-0.064468 0 0.029676-31.955806L703.722044 352.532311 703.722044 352.532311zM735.671711 575.525058c-17.669428 0-31.949666 14.314007-31.949666 31.954783 0 91.444689-102.091166 159.762657-193.408965 159.762657-93.396133 0-190.019775-59.624982-190.019775-159.38301 0-17.633612-14.31503-31.949666-31.954783-31.949666-17.639752 0-31.954783 14.31503-31.954783 31.949666 0 139.763161 129.124869 223.286436 253.957992 223.286436 121.708969 0 257.317507-91.865267 257.317507-223.666082C767.626493 589.839065 753.345232 575.525058 735.671711 575.525058L735.671711 575.525058zM735.671711 575.525058"  horiz-adv-x="1024" />

    
    <glyph glyph-name="shengjiweijingxiaoshang" unicode="&#58907;" d="M512.199033-61.801299c-245.822708 0-445.797205 199.974497-445.797205 445.803345 0 245.821685 200.004173 445.797205 445.797205 445.797205 245.798149 0 445.802322-199.975521 445.802322-445.797205C958.001355 138.173199 758.026858-61.801299 512.199033-61.801299L512.199033-61.801299zM512.199033 766.114814c-210.702839 0-382.112768-171.408905-382.112768-382.111744 0-210.708979 171.408905-382.118907 382.112768-382.118907 210.707956 0 382.117884 171.409928 382.117884 382.118907C894.315894 594.705909 722.905966 766.114814 512.199033 766.114814L512.199033 766.114814zM513.253038 123.936963c-88.747253 0-171.059957 40.124859-225.799676 110.081141-10.825556 13.852496-8.405437 33.851992 5.447059 44.677549 13.818727 10.858302 33.846876 8.439206 44.706201-5.447059 42.573631-54.419424 106.60804-85.622076 175.646416-85.622076 69.767993 0 134.214794 31.742958 176.788425 87.119173 10.732435 13.94971 30.698163 16.59291 44.642756 5.859451 13.94971-10.732435 16.59291-30.726815 5.860475-44.642756C685.809069 164.761764 602.951967 123.936963 513.253038 123.936963L513.253038 123.936963zM369.956402 380.814448c-26.393113 0-47.761794 21.369703-47.761794 47.767933l0 63.685461c0 26.396183 21.36868 47.761794 47.761794 47.761794 26.39823 0 47.76691-21.364587 47.76691-47.761794l0-63.685461C417.723312 402.212804 396.324956 380.814448 369.956402 380.814448L369.956402 380.814448zM656.544559 380.814448c-26.368554 0-47.76691 21.369703-47.76691 47.767933l0 63.685461c0 26.396183 21.398356 47.761794 47.76691 47.761794 26.364461 0 47.762817-21.364587 47.762817-47.761794l0-63.685461C704.307376 402.212804 682.907996 380.814448 656.544559 380.814448L656.544559 380.814448zM656.544559 380.814448"  horiz-adv-x="1024" />

    
    <glyph glyph-name="shouyetubiaosvg08" unicode="&#58893;" d="M764.096 220.736c4.736-3.2 10.432-5.056 16.576-5.056 16.32 0 29.568 13.248 29.568 29.632 0 7.04-2.56 13.504-6.72 18.56l0.256 0.256c-0.448 0.448-1.024 0.832-1.472 1.216-1.728 1.856-3.712 3.52-5.888 4.928-42.944 37.568-92.48 65.664-145.728 83.264 89.536 47.872 150.656 142.208 150.656 250.624 0 156.608-127.424 284.096-284.096 284.096-156.608 0-284.096-127.424-284.096-284.096 0-108.416 61.12-202.752 150.592-250.624-168.704-56.128-290.816-215.168-290.816-402.56 0-16.32 13.248-29.632 29.632-29.632s29.632 13.248 29.632 29.632c0 201.344 163.776 365.12 365.12 365.12 91.52 0 179.072-33.984 246.528-95.744L764.096 220.736zM517.312 375.424c-1.088 0-2.048-0.128-3.136-0.128-124.864 1.664-225.92 103.68-225.92 228.928 0 126.336 102.784 229.056 229.12 229.056s229.056-102.784 229.056-229.056c0-125.184-100.992-227.136-225.792-228.928C519.488 375.296 518.464 375.424 517.312 375.424zM916.352-48.384l-69.76 69.76 69.76 69.76c11.52 11.584 11.52 30.336 0 41.856-11.584 11.584-30.336 11.584-41.856 0l-69.76-69.76-69.76 69.76c-11.52 11.584-30.336 11.584-41.92 0-11.52-11.52-11.52-30.272 0-41.856l69.76-69.76-69.76-69.76c-11.584-11.584-11.584-30.336 0-41.856 11.52-11.584 30.336-11.584 41.856 0l69.76 69.76 69.76-69.76c11.52-11.584 30.272-11.584 41.856 0C927.872-78.72 927.872-59.968 916.352-48.384z"  horiz-adv-x="1024" />

    
    <glyph glyph-name="shouyetubiaosvg59" unicode="&#58908;" d="M767.104 357.12l-14.656 18.112c49.408 370.88-231.68 479.168-234.56 480.256L508.992 858.752 500.16 855.488C497.28 854.4 216.128 746.176 265.6 375.232L250.88 357.12c-93.888-115.264-93.888-116.224-93.888-128.448 0-1.92 19.2-209.984 90.176-265.536l11.968-5.76 7.68 0c8.256 0 28.352 3.136 38.72 32 2.88 8.064 3.52 18.752 4.48 40.192 2.048 43.008 6.4 132.48 46.08 137.536l25.216 3.264c-17.344-32.064-62.528-149.312 111.616-278.72l14.336-10.688 14.912 9.728c66.24 43.2 174.016 156.416 116.416 279.36l23.232-3.008c39.68-5.12 44.032-94.592 46.08-137.536 1.024-21.44 1.6-32.064 4.48-40.256 10.368-28.864 30.528-32 38.72-32l14.336 1.536 6.976 5.44c69.312 54.4 88.512 262.4 88.512 264.32C860.992 240.896 860.992 241.856 767.104 357.12zM384.064 175.168l-1.92 7.168 6.72 0-2.24-3.072C386.56 179.136 385.472 177.536 384.064 175.168zM634.88 178.496l-1.984 3.84 3.008 0L634.88 178.496zM508.672-55.808c-115.648 92.736-98.368 167.616-86.592 194.304l174.656 0.064C630.016 49.152 544.384-28.352 508.672-55.808zM759.232 27.2c-0.064 1.536-0.128 3.2-0.192 4.864-2.56 53.504-7.04 147.264-62.912 177.216l6.528 24.256L315.392 233.536l6.528-24.256c-55.872-29.952-60.352-123.712-62.912-177.216-0.064-1.344-0.128-2.624-0.192-3.84-28.864 52.352-46.4 159.04-49.92 194.112 13.44 18.56 58.752 74.24 81.728 102.528l28.928 35.712L317.824 371.584C272.256 676.672 464 783.104 508.992 803.648c44.992-20.544 236.736-127.04 191.168-432.128l-1.664-11.072 28.928-35.712c22.912-28.224 68.16-83.776 81.664-102.4C805.312 185.28 787.648 77.76 759.232 27.2zM508.992 664.768c-78.784 0-142.976-60.736-142.976-135.424s64.192-135.424 142.976-135.424 142.912 60.736 142.912 135.424S587.84 664.768 508.992 664.768zM508.992 445.12c-50.624 0-91.776 37.76-91.776 84.224s41.152 84.224 91.776 84.224c50.56 0 91.712-37.76 91.712-84.224S559.552 445.12 508.992 445.12z"  horiz-adv-x="1024" />

    
    <glyph glyph-name="shouyetubiaosvg45" unicode="&#58925;" d="M746.624 554.56c0 121.28-106.56 219.968-237.632 219.968S271.36 675.84 271.36 554.56c0-106.944 82.368-197.248 194.24-216.256l0-337.28c0-20.032 19.328-35.776 44.032-35.776s44.032 15.744 44.032 35.776L553.664 338.624C664.832 358.144 746.624 448.256 746.624 554.56zM532.352 374.4 515.264 372.544l1.408-367.104c-0.384-0.384-2.816-1.792-7.04-1.792-2.944 0-4.992 0.64-5.632-0.192L504 372.48l-17.28 1.728C385.856 384.448 309.76 461.952 309.76 554.56c0 100.096 89.344 181.568 199.232 181.568s199.232-81.472 199.232-181.568C708.288 462.528 632.64 385.088 532.352 374.4zM227.968 534.336c0 30.784 7.296 60.736 21.76 88.96l14.976 29.312L231.808 651.264C125.248 646.784 41.792 565.952 41.792 467.136c0-86.336 65.472-160.96 155.008-179.776l0-100.416c0-20.032 19.328-35.776 44.032-35.776s44.032 15.744 44.032 35.776L284.864 287.296c24.128 5.056 47.232 14.272 67.648 27.136L381.76 332.8 350.72 347.904C275.008 384.896 227.968 456.32 227.968 534.336zM262.912 322.56 243.008 321.152l3.456-19.84 1.408-109.952c-0.384-0.384-2.816-1.792-7.04-1.792-3.008 0-4.992 0.64-5.632-0.192L235.008 298.944l5.248 20.992L218.752 322.624C139.776 332.544 80.192 394.688 80.192 467.136c0 68.288 51.456 125.76 121.664 141.568C193.664 584.704 189.568 559.808 189.568 534.336c0-81.024 42.048-155.84 111.936-202.432C289.152 327.36 276.16 324.224 262.912 322.56zM788.608 653.44l-33.28 1.728 15.104-29.632c14.464-28.288 21.76-58.176 21.76-88.896 0-78.528-47.424-150.144-123.776-186.88L636.992 334.592l29.696-18.496c22.976-14.336 49.024-24 76.096-28.416l0-103.296c0-20.032 19.328-35.776 44.032-35.776s44.032 15.744 44.032 35.776L830.848 291.904c85.312 21.952 145.344 93.888 145.344 177.536C976.192 566.976 893.824 647.808 788.608 653.44zM786.816 187.008c-3.008 0-5.056 0.64-5.632-0.192l-0.96 108.096 6.4 10.816 5.824-6.976 1.408-109.888C793.536 188.416 791.04 187.008 786.816 187.008zM805.312 325.76l-34.368-1.152 1.088-1.344-6.976 0.512c-16.192 1.152-32.064 4.48-47.04 9.984 70.336 46.528 112.704 121.408 112.704 202.88 0 25.216-4.032 49.856-12.096 73.792 68.928-16.64 119.296-73.792 119.296-140.992C937.792 398.528 882.048 338.112 805.312 325.76z"  horiz-adv-x="1024" />

    
    <glyph glyph-name="shouyetubiaosvg50" unicode="&#58930;" d="M904.32 709.312l-8.256 16.64-18.368-2.688c-176.192-25.664-340.16 81.856-341.44 82.752L528.448 810.496 511.296 812.352 503.168 806.144C502.016 805.248 385.152 718.016 210.88 718.016c-25.472 0-51.328 1.856-76.736 5.568l-19.2 2.752L107.072 708.672c-1.92-4.352-186.368-436.992 351.296-765.696l33.344-21.44 15.552-7.36 61.888 36.864C1108.16 280.512 906.432 705.024 904.32 709.312zM542.72-5.184l-36.48-21.76-20.608 13.248C41.088 258.112 119.808 590.016 147.2 670.336c21.184-2.304 42.56-3.52 63.68-3.52 158.208 0 271.36 64 309.504 89.024 40.768-24.192 161.024-87.616 301.824-87.616 14.592 0 29.056 0.704 43.264 2.112C895.424 593.088 987.776 266.944 542.72-5.184zM508.992 591.296c-115.264 0-209.024-87.552-209.024-195.2s93.76-195.264 209.024-195.264 209.024 87.616 209.024 195.264S624.256 591.296 508.992 591.296zM508.992 252.032c-86.976 0-157.76 64.64-157.76 144.064 0 79.424 70.72 144 157.76 144s157.76-64.64 157.76-144C666.752 316.672 596.032 252.032 508.992 252.032z"  horiz-adv-x="1024" />

    
    <glyph glyph-name="jinru1" unicode="&#58903;" d="M884.229-81.232 232.846-81.232c-77.137 0-139.577 62.44-139.577 139.578L93.269 244.424l93.075 0 0-60.832c0-94.904 76.844-171.821 171.821-171.821l400.818 0c94.83 0 171.82 76.917 171.82 171.821L930.803 584.409c0 94.904-76.99 171.821-171.82 171.821L358.166 756.23c-94.977 0-171.821-76.917-171.821-171.821l0-14.257L93.196 570.152 93.196 709.655c0 77.137 62.44 139.577 139.577 139.577l651.383 0c77.137 0 139.65-62.44 139.65-139.577l0-651.31C1023.807-18.792 961.293-81.232 884.229-81.232zM465.426 616.652 744.653 384 465.499 197.849 465.499 337.426 0.194 337.426 0.194 477.003l465.232 0L465.426 616.652z"  horiz-adv-x="1024" />

    
    <glyph glyph-name="shouyeleimu" unicode="&#58949;" d="M409.881691 658.107302 223.707692 658.107302c-38.555091 0-69.815506-31.271678-69.815506-69.838033l0-186.173999c0-38.544852 31.25939-69.792978 69.815506-69.792978l186.173999 0c38.555091 0 69.815506 31.249151 69.815506 69.792978L479.697196 588.269269C479.697196 626.835624 448.437806 658.107302 409.881691 658.107302zM433.154209 428.707939c0-27.544471-22.329452-49.885187-49.872899-49.885187L250.309097 378.822752c-27.543447 0-49.872899 22.339692-49.872899 49.885187l0 132.971188c0 27.543447 22.329452 49.884163 49.872899 49.884163l132.972212 0c27.543447 0 49.872899-22.339692 49.872899-49.884163L433.154209 428.707939zM782.231736 658.107302 596.058762 658.107302c-38.555091 0-69.815506-31.271678-69.815506-69.838033l0-186.173999c0-38.544852 31.25939-69.792978 69.815506-69.792978l186.172975 0c38.555091 0 69.815506 31.249151 69.815506 69.792978L852.047242 588.269269C852.047242 626.835624 820.787852 658.107302 782.231736 658.107302zM805.504254 428.707939c0-27.544471-22.328429-49.885187-49.872899-49.885187L622.647879 378.822752c-27.532183 0-49.860612 22.339692-49.860612 49.885187l0 132.971188c0 27.543447 22.329452 49.884163 49.860612 49.884163l132.983476 0c27.544471 0 49.872899-22.339692 49.872899-49.884163L805.504254 428.707939zM409.881691 285.733705 223.707692 285.733705c-38.555091 0-69.815506-31.249151-69.815506-69.815506l0-186.151472c0-38.566355 31.25939-69.815506 69.815506-69.815506l186.173999 0c38.555091 0 69.815506 31.249151 69.815506 69.815506L479.697196 215.918199C479.697196 254.484554 448.437806 285.733705 409.881691 285.733705zM433.154209 56.356869c0-27.544471-22.329452-49.861636-49.872899-49.861636L250.309097 6.495234c-27.543447 0-49.872899 22.317165-49.872899 49.861636l0 132.971188c0 27.544471 22.329452 49.861636 49.872899 49.861636l132.972212 0c27.543447 0 49.872899-22.317165 49.872899-49.861636L433.154209 56.356869zM689.144737 285.733705c-89.973143 0-162.901481-72.929362-162.901481-162.878954 0-89.973143 72.928338-162.902505 162.901481-162.902505 89.974167 0 162.902505 72.929362 162.902505 162.902505C852.047242 212.804343 779.118904 285.733705 689.144737 285.733705zM689.144737 6.495234c-64.269749 0-116.358493 52.088744-116.358493 116.359517 0 64.247222 52.088744 116.335966 116.358493 116.335966 64.259509 0 116.359517-52.088744 116.359517-116.335966C805.504254 58.583978 753.404246 6.495234 689.144737 6.495234zM823.30986 22.858083l68.395276-68.384012c9.442941-9.431677 9.442941-24.749065 0-34.180743-9.443965-9.45318-24.749065-9.45318-34.20327 0l-68.382988 68.384012c-9.442941 9.431677-9.442941 24.749065 0 34.180743C798.560795 32.311263 813.867943 32.311263 823.30986 22.858083z"  horiz-adv-x="1024" />

    
    <glyph glyph-name="shouyeshangoumiaobiao" unicode="&#58950;" d="M502.636928-83.983745c-47.11538 0-92.833058 9.233029-135.883325 27.440027-41.571672 17.582383-78.901085 42.748199-110.950971 74.798085-32.051934 32.05091-57.21775 69.379299-74.801157 110.949947-18.209045 43.051291-27.442075 88.769992-27.442075 135.887421 0 47.114356 9.233029 92.832034 27.442075 135.883325 17.582383 41.570648 42.749223 78.900061 74.800133 110.950971s69.380323 57.21775 110.950971 74.800133c43.050267 18.209045 88.768968 27.442075 135.883325 27.442075 47.117428 0 92.83613-9.233029 135.887421-27.442075 41.571672-17.582383 78.901085-42.749223 110.950971-74.801157 32.049886-32.05091 57.215702-69.380323 74.798085-110.950971 18.206998-43.050267 27.440027-88.767945 27.440027-135.882301 0-47.117428-9.233029-92.83613-27.440027-135.887421-17.582383-41.571672-42.748199-78.900061-74.799109-110.949947-32.049886-32.049886-69.379299-57.215702-110.949947-74.798085C595.474082-74.750715 549.754356-83.983745 502.636928-83.983745zM502.636928 567.625251c-166.81812 0-302.53454-135.71642-302.53454-302.533516 0-166.816073 135.71642-302.531468 302.53454-302.531468 166.817096 0 302.532492 135.715396 302.532492 302.531468C805.170444 431.908832 669.455048 567.625251 502.636928 567.625251zM502.636928 195.277254c-12.852721 0-23.271494 10.419797-23.271494 23.272518l0 255.989504c0 12.852721 10.418773 23.272518 23.271494 23.272518s23.272518-10.419797 23.272518-23.272518l0-255.989504C525.909446 205.69705 515.489649 195.277254 502.636928 195.277254zM502.636928 567.625251c-12.852721 0-23.271494 10.418773-23.271494 23.271494l0 69.815506c0 12.852721 10.418773 23.271494 23.271494 23.271494s23.272518-10.418773 23.272518-23.271494l0-69.815506C525.909446 578.044024 515.489649 567.625251 502.636928 567.625251zM502.636928 311.635747c25.704418 0 46.542988-20.839594 46.542988-46.542988s-20.839594-46.542988-46.542988-46.542988-46.544012 20.839594-46.544012 46.542988S476.933534 311.635747 502.636928 311.635747zM731.991236 472.629594c-5.95534 0-11.911704 2.272163-16.455005 6.815465-9.088651 9.088651-9.088651 23.823407 0 32.912059l65.814902 65.814902c9.087627 9.087627 23.823407 9.087627 32.911035 0 9.088651-9.088651 9.088651-23.823407 0-32.912059l-65.814902-65.814902C743.90294 474.900733 737.946576 472.629594 731.991236 472.629594zM764.937645 627.571014l98.72802-98.72802-32.910547-32.910547-98.72802 98.72802 32.910547 32.910547Z"  horiz-adv-x="1024" />

    
    <glyph glyph-name="htmal5icon28" unicode="&#58944;" d="M547.111682 505.772414l-76.406181 0 0 76.405157 76.406181 0L547.111682 505.772414zM547.111682 200.150762l-76.406181 0 0 229.216495 76.406181 0L547.111682 200.150762zM508.909615 773.190977c-210.115462 0-382.027833-171.912371-382.027833-382.02681s171.912371-382.02681 382.027833-382.02681c210.114438 0 382.02681 171.912371 382.02681 382.02681S719.024054 773.190977 508.909615 773.190977z"  horiz-adv-x="1024" />

    
    <glyph glyph-name="mimazhongzhi" unicode="&#58976;" d="M860.138659 485.269333l157.610667 0L1017.749326 765.610667l-86.378667-82.133333C838.655992 812.202667 687.594659 896 516.991992 896 234.901326 896 6.250659 667.050667 6.250659 384.618667c0-282.453333 228.650667-511.402667 510.741333-511.402667 246.613333 0 452.416 175.04 500.224 407.808L859.370659 281.024c-44.373333-147.306667-180.821333-254.634667-342.378667-254.634667-197.568 0-357.76 160.384-357.76 358.229333 0 197.824 160.170667 358.208 357.76 358.208 127.061333 0 238.250667-66.56 301.674667-166.528l-95.701333-91.008L860.138659 485.290667z"  horiz-adv-x="1024" />

    
    <glyph glyph-name="shangpinkuozhan" unicode="&#58917;" d="M992 832 845.3 832 776 576 32 576c-9.6 0-18.7-4.3-24.7-11.7s-8.5-17.2-6.6-26.6l64-320c3-15 16.1-25.7 31.4-25.7l575.9 0-17.3-64-529 0c-17.7 0-32-14.3-32-32s14.3-32 32-32L160 64l512 0 31.5 0 190.8 704L992 768c17.7 0 32 14.3 32 32S1009.7 832 992 832zM122.2 256 71 512l687.6 0-69.4-256L122.2 256zM64-32c0-53 43-96 96-96s96 43 96 96-43 96-96 96S64 21 64-32zM160 0c17.6 0 32-14.4 32-32s-14.4-32-32-32-32 14.4-32 32S142.4 0 160 0zM576-32c0-53 43-96 96-96s96 43 96 96-43 96-96 96S576 21 576-32zM672 0c17.6 0 32-14.4 32-32s-14.4-32-32-32-32 14.4-32 32S654.4 0 672 0z"  horiz-adv-x="1024" />

    
    <glyph glyph-name="jifenshangcheng" unicode="&#58982;" d="M159.1 455.8c94.8-43.9 220.1-68 352.9-68s258.1 24.2 352.9 68C967.5 503.2 1024 569.3 1024 641.9S967.5 780.5 864.9 828C770.1 871.8 644.8 896 512 896S253.9 871.8 159.1 828C56.5 780.5 0 714.4 0 641.9S56.5 503.2 159.1 455.8zM186 769.9C272.6 809.9 388.3 832 512 832c123.7 0 239.4-22.1 326-62.1 77.6-35.9 122-82.6 122-128s-44.5-92.1-122-128c-86.5-40-202.3-62.1-326-62.1-123.7 0-239.4 22.1-326 62.1-77.6 35.9-122 82.6-122 128S108.5 734 186 769.9zM952.6 476.6c-14.7-9.9-18.6-29.7-8.7-44.4 10.7-15.9 16.1-32.2 16.1-48.2 0-45.5-44.5-92.1-122-128-86.5-40-202.3-62.1-326-62.1-123.7 0-239.4 22.1-326 62.1-77.6 35.9-122 82.6-122 128 0 14.4 4.4 29 13 43.3 9.1 15.1 4.3 34.8-10.9 43.9-15.1 9.1-34.8 4.3-43.9-10.9C7.5 435.9 0 410.2 0 384c0-72.5 56.5-138.6 159.1-186.1 94.8-43.9 220.1-68 352.9-68 132.8 0 258.1 24.2 352.9 68C967.5 245.4 1024 311.5 1024 384c0 29-9.1 57.2-27 83.9C987.1 482.6 967.2 486.5 952.6 476.6zM952.6 218.7c-14.7-9.9-18.6-29.7-8.7-44.4 10.7-15.9 16.1-32.2 16.1-48.2 0-45.5-44.5-92.1-122-128-86.5-40-202.3-62.1-326-62.1-123.7 0-239.4 22.1-326 62.1-77.6 35.9-122 82.6-122 128 0 14.4 4.4 29 13 43.3 9.1 15.1 4.3 34.8-10.9 43.9-15.1 9.1-34.8 4.3-43.9-10.9C7.5 178 0 152.4 0 126.1 0 53.6 56.5-12.5 159.1-60c94.8-43.9 220.1-68 352.9-68s258.1 24.2 352.9 68C967.5-12.5 1024 53.6 1024 126.1c0 29-9.1 57.2-27 83.9C987.1 224.7 967.2 228.6 952.6 218.7z"  horiz-adv-x="1024" />

    
    <glyph glyph-name="quxiao" unicode="&#59061;" d="M544 832c-265.1 0-480-214.9-480-480s214.9-480 480-480 480 214.9 480 480S809.1 832 544 832zM128 352c0 56.2 11 110.7 32.7 161.9 20.9 49.5 51 94 89.2 132.3s82.7 68.2 132.3 89.2c51.2 21.7 105.7 32.7 161.9 32.7 56.2 0 110.7-11 161.9-32.7 38.8-16.4 74.5-38.4 106.6-65.6L226.3 83.5c-27.2 32-49.2 67.8-65.6 106.6C139 241.4 128 295.8 128 352zM838.2 57.9c-38.2-38.2-82.7-68.2-132.3-89.2-51.2-21.7-105.7-32.7-161.9-32.7-56.2 0-110.7 11-161.9 32.7-40.6 17.2-77.8 40.4-110.9 69.3L858.1 624.8c28.9-33.1 52.1-70.3 69.3-110.9C949 462.7 960 408.2 960 352c0-56.2-11-110.7-32.7-161.9C906.4 140.6 876.4 96.1 838.2 57.9z"  horiz-adv-x="1024" />

    
    <glyph glyph-name="shouye" unicode="&#58964;" d="M811.443358-101.997605C810.148426-106.272323 807.918816-110.140379 804.9862-113.359448 804.209013-114.310104 803.384655-115.24288 802.500571-116.146745 790.983519-127.920197 774.829593-130.774067 766.419006-122.520973L275.215493 359.510364C266.805287 367.763459 269.323632 383.998033 280.840684 395.771484 282.091107 397.050058 283.398592 398.216409 284.742597 399.28195 285.208224 399.936264 285.720642 400.560904 286.292786 401.144841L765.544814 890.293735C771.287172 896.154783 780.915085 896.679374 790.190354 892.539703 803.125592 889.340796 812.717747 877.662448 812.717747 863.738893L812.717747-88.730645C813.496455-92.802603 813.045664-97.392686 811.443358-101.997605ZM753.373068 793.073456 344.162978 375.413216 753.373068-26.155105 753.373068 793.073456ZM240.574178-123.056596C224.186678-123.056596 210.901839-109.771757 210.901839-93.384257L210.901839 863.738893C210.901839 880.126394 224.186678 893.411232 240.574178 893.411232 256.961679 893.411232 270.246518 880.126394 270.246518 863.738893L270.246518-93.384257C270.246518-109.771757 256.961679-123.056596 240.574178-123.056596Z"  horiz-adv-x="1024" />

    
    <glyph glyph-name="followus" unicode="&#58953;" d="M511.7-64.4c-247.2 0-448.2 201.1-448.2 448.3s201.1 448.2 448.2 448.2c247.2-0 448.3-201.1 448.3-448.2 0-247.2-201.1-448.3-448.3-448.3v0 0zM511.7 767.8c-211.7 0-383.9-172.2-383.9-383.9 0-211.7 172.2-384 383.9-384 211.7 0 383.9 172.3 383.9 383.9 0.1 211.8-172.2 384-383.9 384v0 0zM789.4 467.8c-1.2 25.1-9.3 50-23.4 72-11.4 17.8-22.6 27.5-23.1 28-32 27.3-66.6 41.1-102.9 41.1-56.9 0-102.7-33.7-128.3-58-25.6 24.2-71.4 58-128.2 58-36.3 0-71-13.9-103.1-41.3l-0.1-0.1c-1.8-1.5-43.1-38.5-46.2-99.7-2.3-46.6 17.8-93.2 59.9-138.5l217.7-232.4 217.8 232.5c42.1 45.2 62.2 91.8 59.9 138.4zM511.7 178.8l-176.8 188.7c-31.2 33.4-46.3 66.1-44.9 97 1.5 35.6 25.5 59.3 27.1 60.8 21.5 18.3 43.8 27.6 66.4 27.6 57 0 103.9-57.4 105.8-59.7l21.8-29.3 22.8 29c1.8 2.2 48.7 60.1 106.1 60.1 22.5 0 44.8-9.2 66.1-27.4 1.3-1.2 25.8-24.7 27.4-61.1 1.4-30.8-13.7-63.4-44.9-96.9l-176.9-188.8z"  horiz-adv-x="1024" />

    
    <glyph glyph-name="wodeyouhuijuan" unicode="&#59374;" d="M1009.770667 502.464C1018.282667 505.472 1024 513.536 1024 522.602667l0 131.242667c0 52.352-42.56 94.976-94.912 94.976L94.976 748.821333c-52.352 0-94.954667-42.624-94.954667-94.976l0-131.242667c0-9.045333 5.696-17.130667 14.250667-20.138667C64.426667 484.736 98.133333 437.141333 98.133333 384c0-53.12-33.706667-100.757333-83.882667-118.506667C5.696 262.549333 0 254.421333 0 245.376l0-131.242667c0-52.330667 42.602667-94.954667 94.954667-94.954667L929.066667 19.178667c52.330667 0 94.933333 42.624 94.933333 94.954667l0 131.242667c0 9.045333-5.674667 17.130667-14.229333 20.117333-50.218667 17.749333-83.946667 65.365333-83.946667 118.506667S959.552 484.714667 1009.770667 502.464zM883.114667 384c0-66.048 38.869333-125.717333 98.154667-152.981333l0-116.885333c0-28.778667-23.402667-52.202667-52.202667-52.202667L94.954667 61.930667c-28.8 0-52.224 23.424-52.224 52.202667l0 116.885333c59.264 27.264 98.133333 86.933333 98.133333 152.981333 0 66.048-38.869333 125.738667-98.133333 152.981333l0 116.864c0 28.8 23.402667 52.224 52.224 52.224L929.066667 706.069333c28.778667 0 52.202667-23.402667 52.202667-52.224l0-116.864C921.962667 509.717333 883.114667 450.048 883.114667 384zM683.690667 503.466667l-144.682667 0 86.293333 86.208c8.384 8.362667 8.384 21.888 0 30.229333-8.341333 8.341333-21.824 8.341333-30.208 0L512 536.896l-83.008 82.986667c-8.384 8.362667-21.866667 8.362667-30.208 0-8.362667-8.362667-8.362667-21.866667 0-30.208l86.229333-86.208-144.768 0c-11.776 0-21.354667-9.557333-21.354667-21.354667 0-11.797333 9.578667-21.376 21.354667-21.376l150.4 0 0-79.893333L364.8 380.842667c-11.818667 0-21.376-9.557333-21.376-21.376 0-11.818667 9.557333-21.333333 21.376-21.333333l125.845333 0 0-174.869333c0-11.84 9.557333-21.376 21.354667-21.376 11.84 0 21.376 9.578667 21.376 21.376L533.376 338.133333l125.76 0c11.861333 0 21.418667 9.536 21.418667 21.333333s-9.536 21.376-21.376 21.376l-125.781333 0 0 79.893333 150.357333 0c11.776 0 21.312 9.6 21.312 21.376C705.045333 493.888 695.509333 503.466667 683.690667 503.466667z"  horiz-adv-x="1024" />

    
    <glyph glyph-name="iconfont32pxmimabukejian" unicode="&#58898;" d="M958.098 133.802l-92.621 124.674c34.074 31.213 55.706 67.084 61.082 105.491 0.161 0.757 0.258 1.534 0.308 2.326 0.021 0.183 0.051 0.364 0.072 0.547l-0.045 0c0.005 0.165 0.024 0.326 0.024 0.492 0 8.819-7.161 16.011-16.011 16.011-8.851 0-16.01-7.192-16.01-16.011 0-0.166 0.021-0.327 0.024-0.492l-0.221 0c-15.722-107.476-188.41-192.134-399.11-192.134S112.204 259.364 96.48 366.84l-0.269 0c-0.734 8.142-7.578 14.562-15.937 14.562-8.36 0-15.205-6.42-15.938-14.562l-0.094 0c0.021-0.167 0.048-0.334 0.068-0.501-0.019-0.314-0.047-0.628-0.047-0.948 0-1.97 0.372-3.848 1.021-5.59 8.427-49.171 43.52-94.018 97.175-130.021l-90.347-96.291c-4.441-7.63-1.814-17.45 5.848-21.859 7.661-4.41 17.45-1.782 21.89 5.849l89.792 95.695c31.604-17.589 68.104-32.455 108.248-43.943l-44.996-168.615c-2.284-8.536 2.783-17.325 11.321-19.608 8.537-2.283 17.325 2.786 19.607 11.32l45.072 168.865c46.645-10.841 97.435-17.272 150.688-18.348l0-176.282c0-8.85 7.161-16.014 16.011-16.014 8.849 0 16.01 7.164 16.01 16.014L511.603 142.845c58.771 1.189 114.548 8.897 165.059 21.857l53.905-169.995c2.688-8.819 13.103-14.041 23.234-11.697 10.134 2.377 16.136 11.447 13.416 20.264l-54.497 171.859c50.022 16.173 93.674 37.761 128.342 63.322l89.3-120.194c4.438-7.412 14.227-9.978 21.889-5.691C959.913 116.853 962.508 126.359 958.098 133.802z"  horiz-adv-x="1024" />

    
    <glyph glyph-name="iconfont20151209tubiaolianxizhuanhuan27" unicode="&#58899;" d="M936.136704 409.387008c-11.313152 0-20.48-9.166848-20.48-20.48l0-312.246272c0-49.676288-40.415232-90.087424-90.09152-90.087424L202.694656-13.426688c-49.676288 0-90.09152 40.411136-90.09152 90.087424L112.603136 699.53536c0 49.676288 40.415232 90.087424 90.09152 90.087424l310.92736 0c11.313152 0 20.48 9.166848 20.48 20.48s-9.166848 20.48-20.48 20.48l-310.92736 0c-72.265728 0-131.05152-58.789888-131.05152-131.047424l0-622.874624c0-72.261632 58.789888-131.047424 131.05152-131.047424l622.870528 0c72.265728 0 131.05152 58.789888 131.05152 131.047424l0 312.246272C956.616704 400.216064 947.449856 409.387008 936.136704 409.387008zM936.136704 830.582784l-316.665856 0c-11.313152 0-20.48-9.166848-20.48-20.48s9.166848-20.48 20.48-20.48l206.09024 0c17.051648 0 33.01376-4.763648 46.624768-13.029376l-372.539392-372.539392c-7.999488-7.995392-7.999488-20.963328 0-28.95872 3.997696-4.001792 9.240576-6.00064 14.47936-6.00064s10.48576 1.998848 14.47936 6.00064l372.867072 372.867072c8.962048-13.996032 14.180352-30.609408 14.180352-48.427008L915.652608 495.73888c0-11.313152 9.166848-20.48 20.48-20.48s20.48 9.166848 20.48 20.48L956.612608 810.102784C956.616704 821.41184 947.449856 830.582784 936.136704 830.582784z"  horiz-adv-x="1024" />

    
    <glyph glyph-name="gerenziliao" unicode="&#58888;" d="M929.692694 273.311846 762.19604 273.311846c-15.428104 0-27.915085 12.514612-27.915085 27.916109 0 15.429128 12.488005 27.913039 27.915085 27.913039l167.496653 0c15.400474 0 27.914062-12.483911 27.914062-27.913039C957.608802 285.825434 945.094191 273.311846 929.692694 273.311846zM929.692694 440.809522 706.364846 440.809522c-15.427081 0-27.915085 12.483911-27.915085 27.915085 0 15.430151 12.488005 27.914062 27.915085 27.914062l223.327847 0c15.400474 0 27.914062-12.483911 27.914062-27.914062C957.608802 453.293433 945.094191 440.809522 929.692694 440.809522zM929.692694 608.304128 706.364846 608.304128c-15.427081 0-27.915085 12.514612-27.915085 27.915085 0 15.432198 12.488005 27.914062 27.915085 27.914062l223.327847 0c15.400474 0 27.914062-12.481864 27.914062-27.914062C957.608802 620.81874 945.094191 608.304128 929.692694 608.304128zM678.448737 217.478604 678.448737 102.747173c0-92.500061-74.994545-167.4987-167.496653-167.4987L231.794066-64.751527c-92.504154 0-167.4987 74.998639-167.4987 167.4987L64.295366 217.478604c0 73.334663 47.410004 134.975445 113.055175 157.657092-35.767291 48.226641-57.221934 109.998413-57.221934 177.338261 0 154.16438 112.48312 279.160065 251.246003 279.160065 138.736276 0 251.246003-124.997731 251.246003-279.160065 0-67.339848-21.460784-129.11162-57.225004-177.338261C631.014173 352.453027 678.448737 290.814291 678.448737 217.478604zM566.783279 552.472934c0 123.331709-87.481527 223.325801-195.410715 223.325801-107.930212 0-195.412762-99.997162-195.412762-223.325801 0-123.334779 87.481527-223.328871 195.412762-223.328871C479.301752 329.14304 566.783279 429.139178 566.783279 552.472934zM622.617543 203.522085c0 59.347443-45.06345 108.800064-105.425038 121.915385-41.134789-32.685968-91.378464-52.126648-145.819941-52.126648-54.443525 0-104.715853 19.43761-145.851665 52.126648-60.356471-13.112251-105.391268-62.567942-105.391268-121.915385l0-86.818392c0-69.381442 61.367546-125.623002 137.043647-125.623002l228.40062 0c75.675077 0 137.043647 56.24156 137.043647 125.623002L622.617543 203.522085zM762.198087 161.648433l167.496653 0c15.400474 0 27.913039-12.484934 27.913039-27.915085 0-15.403544-12.514612-27.914062-27.913039-27.914062L762.198087 105.819286c-15.428104 0-27.916109 12.513588-27.916109 27.914062C734.280955 149.162476 746.767936 161.648433 762.198087 161.648433z"  horiz-adv-x="1025" />

    
    <glyph glyph-name="daohang1" unicode="&#58900;" d="M511.264243 687.552527c106.463754 0 193.121416-86.605473 193.121416-193.121416 0-51.557236-20.1182-100.072183-56.585763-136.487557L511.264243 221.407901 374.72859 357.943554c-36.46654 36.467563-56.58474 84.930321-56.58474 136.487557C318.14385 600.947054 404.800489 687.552527 511.264243 687.552527M511.264243 739.944781c-135.539976 0-245.51367-109.921505-245.51367-245.51367 0-67.798129 27.453259-129.152499 71.935356-173.578314l173.578314-173.530219 173.578314 173.582407c44.482097 44.429909 71.935356 105.780185 71.935356 173.578314C756.777913 630.075465 646.804219 739.944781 511.264243 739.944781L511.264243 739.944781 511.264243 739.944781zM511.264243 739.944781M776.532839 273.069515l-38.406728-37.778418c25.151843-15.977903 40.029692-33.845853 40.029692-51.030234 0-48.726771-114.110921-103.161544-266.839371-103.161544-152.724357 0-266.839371 54.434773-266.839371 103.161544 0 18.756179 17.292851 38.35454 46.944172 55.43045l-34.788318 40.397059c-40.655955-26.038026-64.548108-58.995649-64.548108-95.77532 0-88.647993 137.219221-155.554822 319.231625-155.554822 182.016497 0 319.231625 66.855664 319.231625 155.554822C830.495868 217.794607 810.797223 248.233873 776.532839 273.069515L776.532839 273.069515zM776.532839 273.069515M458.871989 509.676327c0-13.718443 5.644557-27.348881 15.3455-37.046754 9.697873-9.700943 23.332405-15.3455 37.046754-15.3455 13.718443 0 27.349905 5.644557 37.046754 15.3455 9.701966 9.697873 15.3455 23.328311 15.3455 37.046754 0 13.715373-5.643534 27.349905-15.3455 37.046754-9.69685 9.697873-23.328311 15.346523-37.046754 15.346523-13.71435 0-27.348881-5.64865-37.046754-15.346523C464.516546 537.026232 458.871989 523.3917 458.871989 509.676327L458.871989 509.676327zM458.871989 509.676327"  horiz-adv-x="1024" />

    
    <glyph glyph-name="personal_enounce" unicode="&#58894;" d="M949.822 589.573l-232.261 232.252c-6.554 6.556-15.149 9.756-23.751 9.756-8.592 0-17.168-3.2-23.724-9.756l-605.664-605.672v-279.734h279.735l605.665 605.67c6.553 6.558 9.754 15.177 9.754 23.745 0.001 8.602-3.2 17.184-9.754 23.74zM148.343 20.339v136.475l136.476-136.475h-136.476zM359.832 64.013l-167.842 167.841 388.246 388.23 167.843-167.833-388.247-388.237zM807.41 511.581l-167.843 167.843 54.259 54.253 167.843-167.843-54.259-54.253z"  horiz-adv-x="1024" />

    
    <glyph glyph-name="shouye1" unicode="&#58931;" d="M982 286c-8 0-15 3-21 9L546 763c-10 10.667-21.667 16-35 16-6.667 0-12.833-1.5-18.5-4.5s-10.833-7.167-15.5-12.5L62 295c-5.333-6-11.833-9.167-19.5-9.5S28.333 287.667 23 293c-4 3.333-6.667 7.333-8 12s-1.5 9.333-0.5 14 3.167 9 6.5 13L435 799c20.667 23.333 46 35 76 35s55.333-11.667 76-35l415-467c5.333-6 7.833-12.833 7.5-20.5s-3.5-13.833-9.5-18.5c-2.667-2.667-5.5-4.5-8.5-5.5S985.333 286 982 286zM843 338l0-276c0-15.333-5.5-28.333-16.5-39s-24.167-16-39.5-16L677 7 677 228c0 30.667-10.833 56.667-32.5 78s-47.833 32-78.5 32L456 338c-30.667 0-56.833-10.667-78.5-32S345 258.667 345 228l0-221L235 7c-15.333 0-28.5 5.333-39.5 16S179 46.667 179 62L179 338l-55 0 0-276c0-30.667 10.833-56.833 32.5-78.5S204.333-49 235-49l166 0L401 228c0 10 2.333 19.167 7 27.5s11.333 15 20 20 18 7.5 28 7.5l110 0c15.333 0 28.5-5.333 39.5-16s16.5-23.667 16.5-39l0-277 165 0c20 0 38.5 5 55.5 15s30.5 23.5 40.5 40.5 15 35.5 15 55.5L898 338 843 338z"  horiz-adv-x="1024" />

    
    <glyph glyph-name="shanchucuowuwenjian" unicode="&#59127;" d="M960 576h-384v320h64v-256h320zM339.2 217.6l300.8 300.8 44.8-44.8-300.8-300.8-44.8 44.8zM339.2 473.6l44.8 44.8 300.8-300.8-44.8-44.8-300.8 300.8zM870.4-128h-716.8c-49.472 0-89.6 40.128-89.6 89.6v844.8c0 49.472 40.128 89.6 89.6 89.6h486.4l320-249.6v-684.8c0-49.472-40.128-89.6-89.6-89.6zM153.6 832c-19.2 0-25.6-12.8-25.6-25.6v-844.8c0-14.144 11.456-25.6 25.6-25.6h716.8c19.2 0 25.6 12.8 25.6 25.6v659.2l-275.2 211.2h-467.2z"  horiz-adv-x="1024" />

    
    <glyph glyph-name="quxiaoshoucang" unicode="&#58914;" d="M877.278357 520.605238l-219.339544 31.618115-98.800213 199.579501c-5.929036 11.857049-19.761066 19.760043-33.593096 19.760043s-25.689079-7.902994-33.593096-21.735024l-94.850252-201.558575-219.339544-31.614022c-13.83203-1.974981-25.689079-11.857049-29.640064-25.689079-3.953032-13.83203 0-27.66406 9.878998-37.544081L318.061986 297.314709 288.419875 76.000184c-1.974981-13.831007 3.953032-27.66406 13.831007-35.571147 5.929036-3.948939 13.83203-7.902994 21.736047-7.902994 5.928013 0 11.857049 1.979074 17.785062 3.954055L529.494443 141.209348l185.747471-102.755292c5.928013-1.973958 11.857049-3.948939 17.785062-3.948939 19.761066 0 35.5691 15.805988 35.5691 37.543058l0 7.902994-29.639041 219.339544 158.082388 158.082388c9.877975 9.882068 13.83203 23.714098 9.877975 37.546128C900.992455 508.752282 891.110387 518.630257 877.278357 520.605238L877.278357 520.605238zM367.462093 301.265694c1.974981 11.857049-1.978051 25.689079-11.857049 33.593096L203.450668 473.184205l213.411531 29.640064c11.857049 1.974981 23.710005 9.877975 29.639041 21.735024l79.043241 183.77249 86.944188-179.818435c5.928013-11.857049 15.810081-19.761066 29.642111-21.74014l207.482495-33.589003L701.409884 330.908828c-9.877975-7.904017-13.83203-21.735024-9.877975-33.593096l23.710005-205.507514-167.961386 98.801237c-9.878998 5.928013-23.711028 3.953032-35.5691-1.974981l-171.914418-94.850252L367.462093 301.265694 367.462093 301.265694z"  horiz-adv-x="1024" />

    
    <glyph glyph-name="quxiaofenxiang" unicode="&#58936;" d="M782.287913 273.588331c-50.91153 0-94.807273-29.883611-115.118877-73.093738L499.942383 229.929995c1.76418 10.038634 2.671852 20.395516 2.671852 30.947849 0 46.465265-17.820877 88.76465-46.964638 120.445186l154.6318 154.650219c13.953803-5.262864 29.077246-8.129144 44.880163-8.129144 70.205968 0 127.125329 56.905034 127.125329 127.122259s-56.919361 127.125329-127.125329 127.125329-127.125329-56.908104-127.125329-127.125329c0-35.657104 14.686491-67.86976 38.324864-90.962711L415.972946 413.613458c-26.708292 16.012695-57.929364 25.238824-91.337241 25.238824-98.284467-0.004093-177.972391-79.68076-177.972391-177.976484 0-98.298793 79.687924-177.979554 177.972391-177.979554 69.648266 0 129.921002 39.997969 159.170163 98.277304l171.418115-30.192649-0.061398-4.516874c0-70.220295 56.919361-127.129422 127.125329-127.129422 70.206992 0 127.126352 56.908104 127.126352 127.129422C909.414265 216.683297 852.494904 273.588331 782.287913 273.588331zM571.558467 653.641183c0 45.38056 36.788881 82.169441 82.169441 82.169441s82.169441-36.788881 82.169441-82.169441-36.788881-82.169441-82.169441-82.169441S571.558467 608.260623 571.558467 653.641183zM324.223313 136.541025c-69.131497 0-125.173884 56.042387-125.173884 125.173884s56.042387 125.173884 125.173884 125.173884 125.173884-56.042387 125.173884-125.173884S393.354809 136.541025 324.223313 136.541025zM782.664489 64.566784c-44.454468 0-80.491219 36.036751-80.491219 80.491219s36.036751 80.491219 80.491219 80.491219 80.491219-36.036751 80.491219-80.491219S827.118957 64.566784 782.664489 64.566784z"  horiz-adv-x="1024" />

    
    <glyph glyph-name="daohangnavigate4" unicode="&#58974;" d="M508.19072 378.88 217.35424 669.71648c-20.89984 20.89984-20.89984 54.80448 0 75.70432 20.89984 20.91008 54.79424 20.91008 75.70432 0l328.704-328.69376c10.4448-10.45504 15.6672-24.14592 15.6672-37.84704s-5.23264-27.40224-15.6672-37.84704l-328.704-328.69376c-20.91008-20.91008-54.80448-20.91008-75.70432 0-20.89984 20.89984-20.89984 54.79424 0 75.70432L508.19072 378.88zM706.27328 761.09824l0-738.12992c0-5.66272 4.57728-10.24 10.24-10.24l95.56992 0c5.66272 0 10.24 4.57728 10.24 10.24L822.3232 761.09824c0 5.66272-4.57728 10.24-10.24 10.24l-95.56992 0C710.85056 771.33824 706.27328 766.76096 706.27328 761.09824z"  horiz-adv-x="1024" />

    
    <glyph glyph-name="daohangnavigate5" unicode="&#58975;" d="M806.64576 88.04352c20.89984-20.91008 20.89984-54.80448 0-75.70432-20.89984-20.91008-54.79424-20.91008-75.70432 0l-328.704 328.69376c-10.4448 10.45504-15.6672 24.14592-15.6672 37.84704s5.23264 27.40224 15.6672 37.84704l328.704 328.69376c20.91008 20.91008 54.80448 20.91008 75.70432 0 20.89984-20.89984 20.89984-54.80448 0-75.70432L515.80928 378.88 806.64576 88.04352zM307.48672 771.33824l-95.56992 0c-5.66272 0-10.24-4.57728-10.24-10.24l0-738.12992c0-5.66272 4.57728-10.24 10.24-10.24l95.56992 0c5.66272 0 10.24 4.57728 10.24 10.24L317.72672 761.09824C317.72672 766.76096 313.14944 771.33824 307.48672 771.33824z"  horiz-adv-x="1024" />

    
    <glyph glyph-name="37" unicode="&#58901;" d="M882.959 594.927h-76.852c24.004 27.103 37.184 58.787 38.535 89.089 1.173 26.319-6.449 50.218-22.043 69.115-16.358 19.82-40.331 32.447-69.326 36.512-57.546 8.066-121.794-24.854-190.998-97.841-20.433-21.551-38.194-43.339-51.925-61.364-13.731 18.025-31.491 39.813-51.925 61.364-69.205 72.987-133.466 105.903-190.998 97.841-28.996-4.065-52.969-16.691-69.327-36.512-15.594-18.897-23.217-42.796-22.043-69.115 1.351-30.301 14.531-61.985 38.535-89.089h-85.829c-39.397 0-71.631-32.234-71.631-71.631v-75.796c0-37.483 29.184-68.458 65.947-71.384v-335.862c0-39.397 32.234-71.631 71.631-71.631h622.301c39.397 0 71.631 32.234 71.631 71.631v335.862c36.764 2.925 65.947 33.901 65.947 71.384v75.796c0.001 39.397-32.233 71.631-71.63 71.631zM882.959 523.167v-75.54c-0.038-0.044-0.084-0.091-0.129-0.128h-341.153v75.796h341.153c0.045-0.037 0.092-0.084 0.129-0.128zM743.328 718.704c20.836-2.921 30.568-13.224 29.754-31.497-1.57-35.203-43.554-86.775-131.978-91.215-2.432-0.122-4.795-0.486-7.067-1.064h-60.577c11.615 14.848 25.744 31.774 41.487 48.315 50.602 53.175 96.201 79.973 128.381 75.462zM379.595 595.991c-88.424 4.44-130.408 56.012-131.978 91.215-0.815 18.273 8.917 28.577 29.754 31.497 32.193 4.516 77.779-22.288 128.382-75.462 15.743-16.542 29.873-33.468 41.487-48.315h-60.578c-2.273 0.579-4.635 0.942-7.067 1.064zM128.764 523.167c0.037 0.045 0.084 0.091 0.128 0.128h341.154v-75.796l-341.154 0.001c-0.044 0.037-0.091 0.083-0.128 0.128v75.539zM194.711 40.382v331.137h275.335v-331.265h-275.207c-0.044 0.037-0.091 0.084-0.128 0.128zM817.011 40.382c-0.037-0.044-0.084-0.091-0.128-0.128h-275.206v331.265h275.334v-331.137z"  horiz-adv-x="1024" />

    
    <glyph glyph-name="lianxiwomenyoujian" unicode="&#58932;" d="M673.1776 415.5392l270.165333 263.543467C950.9888 671.505067 955.733333 660.992 955.733333 649.3184l0-530.602667c0-11.025067-4.3008-20.957867-11.229867-28.433067L673.1776 415.5392zM82.1248 680.311467C89.4976 687.0016 99.157333 691.2 109.8752 691.2l804.283733 0c10.717867 0 20.3776-4.1984 27.7504-10.888533L512 342.1184 82.1248 680.311467zM79.496533 90.248533C72.567467 97.723733 68.266667 107.656533 68.266667 118.715733L68.266667 649.3184c0 11.6736 4.744533 22.186667 12.3904 29.7984l270.165333-263.543467L79.496533 90.248533zM512 258.321067l112.810667 110.045867 317.8496-280.029867C935.2192 81.237333 925.218133 76.8 914.1248 76.8L109.8752 76.8c-11.0592 0-21.060267 4.437333-28.535467 11.537067l317.8496 280.029867L512 258.321067z"  horiz-adv-x="1024" />

    
    <glyph glyph-name="mima" unicode="&#59017;" d="M510.362-99.587c-269.967 0-489.609 219.642-489.609 489.595s219.642 489.609 489.609 489.609 489.595-219.642 489.595-489.609-219.628-489.595-489.595-489.595zM510.362 838.656c-247.385 0-448.649-201.25-448.649-448.649s201.264-448.635 448.649-448.635 448.635 201.25 448.635 448.635-201.264 448.649-448.635 448.649zM707.092 98.918h-393.475c-33.874 0-61.44 27.566-61.44 61.44v230.386c0 33.874 27.566 61.44 61.44 61.44h393.475c33.874 0 61.44-27.566 61.44-61.44v-230.386c0-33.888-27.566-61.44-61.44-61.44zM313.617 411.225c-11.292 0-20.48-9.188-20.48-20.48v-230.386c0-11.292 9.188-20.48 20.48-20.48h393.475c11.292 0 20.48 9.188 20.48 20.48v230.386c0 11.292-9.188 20.48-20.48 20.48h-393.475zM653.148 411.375h-306.067v126.948c0 90.030 73.236 163.28 163.266 163.28s163.28-73.25 163.28-163.28v-7.55h-40.96v7.55c0 67.447-54.873 122.32-122.32 122.32-67.434 0-122.306-54.873-122.306-122.32v-85.988h265.107v-40.96z"  horiz-adv-x="1024" />

    
    <glyph glyph-name="6" unicode="&#58885;" d="M32-128C12.8-128 0-115.2 0-96l0 320C0 243.2 12.8 256 32 256S64 243.2 64 224l0-320C64-115.2 51.2-128 32-128zM480-128C460.8-128 448-115.2 448-96L448 320c0 19.2 12.8 32 32 32S512 339.2 512 320l0-416C512-115.2 499.2-128 480-128zM288-128C268.8-128 256-115.2 256-96L256 320c0 19.2 12.8 32 32 32S320 339.2 320 320l0-416C320-115.2 307.2-128 288-128zM736-128c-19.2 0-32 12.8-32 32L704 320c0 19.2 12.8 32 32 32S768 339.2 768 320l0-416C768-115.2 755.2-128 736-128zM928-128c-19.2 0-32 12.8-32 32L896 512c0 19.2 12.8 32 32 32S960 531.2 960 512l0-608C960-115.2 947.2-128 928-128zM32 416C12.8 416 0 435.2 0 448s12.8 32 32 32c364.8 0 716.8 153.6 934.4 403.2 12.8 12.8 32 12.8 44.8 0 12.8-12.8 12.8-32 0-44.8C780.8 576 416 416 32 416zM992 704C972.8 704 960 716.8 960 736L960 832l-96 0C844.8 832 832 844.8 832 864S844.8 896 864 896l128 0C1011.2 896 1024 883.2 1024 864l0-128C1024 716.8 1011.2 704 992 704z"  horiz-adv-x="1024" />

    
    <glyph glyph-name="12" unicode="&#58890;" d="M512-128c-281.6 0-512 230.4-512 512s230.4 512 512 512 512-230.4 512-512S793.6-128 512-128zM512 832C262.4 832 64 633.6 64 384s198.4-448 448-448 448 198.4 448 448S761.6 832 512 832zM787.2 556.8 236.8 556.8c-19.2 0-32 12.8-32 32s12.8 32 32 32l550.4 0c19.2 0 32-12.8 32-32S806.4 556.8 787.2 556.8zM787.2 352 236.8 352C217.6 352 204.8 364.8 204.8 384s12.8 32 32 32l550.4 0c19.2 0 32-12.8 32-32S806.4 352 787.2 352zM787.2 147.2 236.8 147.2c-19.2 0-32 12.8-32 32s12.8 32 32 32l550.4 0c19.2 0 32-12.8 32-32S806.4 147.2 787.2 147.2z"  horiz-adv-x="1024" />

    
    <glyph glyph-name="49" unicode="&#58926;" d="M473.6 454.4C467.2 454.4 454.4 460.8 448 467.2l-89.6 128C352 614.4 352 633.6 364.8 646.4 384 652.8 403.2 652.8 409.6 633.6l89.6-128C512 492.8 505.6 473.6 492.8 460.8 486.4 460.8 480 454.4 473.6 454.4zM550.4 454.4c-6.4 0-12.8 0-19.2 6.4C518.4 473.6 512 492.8 524.8 505.6l89.6 128c12.8 12.8 32 19.2 44.8 6.4 12.8-12.8 19.2-32 6.4-44.8L576 467.2C569.6 460.8 556.8 454.4 550.4 454.4zM684.8 281.6 339.2 281.6C320 281.6 307.2 294.4 307.2 313.6c0 19.2 12.8 32 32 32l345.6 0c19.2 0 32-12.8 32-32C716.8 294.4 704 281.6 684.8 281.6zM684.8 428.8 339.2 428.8C320 428.8 307.2 441.6 307.2 460.8c0 19.2 12.8 32 32 32l345.6 0c19.2 0 32-12.8 32-32C716.8 441.6 704 428.8 684.8 428.8zM512 121.6C512 121.6 512 121.6 512 121.6c-19.2 0-32 12.8-32 32l0 288c0 19.2 12.8 32 32 32 0 0 0 0 0 0 19.2 0 32-12.8 32-32l0-288C544 134.4 524.8 121.6 512 121.6zM512-128c-6.4 0-6.4 0-12.8 0-57.6 19.2-230.4 115.2-307.2 198.4-76.8 89.6-115.2 172.8-115.2 268.8L76.8 723.2c0 12.8 6.4 25.6 19.2 32L499.2 896c6.4 0 12.8 0 19.2 0l396.8-140.8c12.8-6.4 19.2-19.2 19.2-32l0-371.2c0-102.4-32-185.6-115.2-268.8C748.8-12.8 576-108.8 524.8-128 518.4-128 518.4-128 512-128zM147.2 697.6l0-352c0-64 12.8-134.4 96-230.4 64-76.8 211.2-153.6 268.8-179.2 57.6 25.6 204.8 108.8 268.8 179.2 83.2 96 96 166.4 96 230.4L876.8 697.6 512 832 147.2 697.6z"  horiz-adv-x="1024" />

    
    <glyph glyph-name="5101" unicode="&#58928;" d="M1014.058568 97.714215 58.23974 97.714215c-17.61064 0-31.859905-14.014457-31.859905-31.608841s14.249265-31.608841 31.859905-31.608841l955.817022 0c17.61064 0 31.859905 14.014457 31.859905 31.608841S1031.669208 97.714215 1014.058568 97.714215zM1046.879382 706.92314c-0.343182 2.364341-1.463038 4.703395-2.34086 6.96117-0.872404 2.243325-2.776159 4.08025-4.109149 6.041804-0.881435 1.305897-1.54793 2.79964-2.646112 3.99897-0.16256 0.17701-0.51116 0.234809-0.677332 0.408206-1.683397 1.761064-3.868922 2.9333-5.915369 4.269903-1.4522 0.944653-2.749066 2.203588-4.311446 2.888145-1.46665 0.64482-3.16269 0.713457-4.734101 1.134306-2.461877 0.652045-4.871374 1.968779-7.403694 2.02116-0.236615 0.005419-0.442524 0.662883-0.682751 0.662883L822.895525 735.309685c-17.61064 0-31.859905-14.014457-31.859905-31.608841s14.249265-31.608841 31.859905-31.608841l109.25099 0L632.695197 396.811515 367.511474 661.588838c-12.444852 12.444852-32.60768 12.251587-45.052532-0.195072L35.714377 374.551666c-12.444852-12.444852-12.444852-32.656448 0-45.1013s32.60768-12.470139 45.052532-0.023481l264.219202 264.206558L609.205313 329.407017c6.19172-6.207976 14.373894-9.336348 22.527169-9.336348 7.71617 0 17.558259 2.783384 23.656056 8.368215l331.061965 301.523052 0-118.73003c0-17.594384 13.998201-31.859905 31.608841-31.859905s31.608841 14.265521 31.608841 31.859905L1049.668185 702.393142C1049.666379 704.000677 1047.108772 705.380629 1046.879382 706.92314z"  horiz-adv-x="1076" />

    
    <glyph glyph-name="zhenshiyouxiao" unicode="&#58989;" d="M771.124131 30.062778C771.124131 25.501324 766.544058 20.939869 761.945367 20.939869L260.520495 20.939869C255.940422 20.939869 251.341731 25.501324 251.341731 30.062778L251.341731 737.944669C251.341731 742.487505 255.940422 747.04896 260.520495 747.04896L763.472058 747.04896C768.070749 747.04896 772.650822 742.487505 772.650822 737.944669L771.124131 30.062778 771.124131 30.062778ZM511.251549-99.035695C487.103767-99.035695 467.498822-79.225949 467.498822-54.836131 467.498822-30.446313 487.103767-10.617949 511.251549-10.617949 535.380713-10.617949 554.985658-30.446313 554.985658-54.836131 554.985658-79.225949 535.380713-99.035695 511.251549-99.035695L511.251549-99.035695 511.251549-99.035695ZM446.385804 847.214778 576.098676 847.214778C580.622895 847.214778 583.63904 844.180015 583.63904 839.599942 583.63904 835.019869 580.622895 831.985105 576.098676 831.985105L446.385804 831.985105C441.861585 831.985105 438.84544 835.019869 438.84544 839.599942 438.84544 842.653324 441.861585 847.214778 446.385804 847.214778L446.385804 847.214778 446.385804 847.214778ZM743.531985 895.994415 278.971113 895.994415C242.758749 895.994415 214.105367 867.043142 214.105367 830.458415L214.105367-62.450967C214.105367-99.035695 242.758749-128.005585 278.971113-128.005585L745.040058-128.005585C781.233804-128.005585 809.887185-99.035695 809.887185-62.450967L809.887185 830.458415C809.887185 867.043142 779.725731 895.994415 743.531985 895.994415L743.531985 895.994415Z"  horiz-adv-x="1024" />

    
    <glyph glyph-name="shanchuchengyuan" unicode="&#58923;" d="M925.031196 17.469905 1015.521987-73.020886C1028.015059-85.513958 1028.015059-105.781208 1015.521987-118.274279 1003.028915-130.767351 982.777661-130.767351 970.28459-118.274279L879.793798-27.783488 789.303007-118.274279C776.809935-130.767351 756.558682-130.767351 744.06561-118.274279 731.572538-105.781208 731.572538-85.513958 744.06561-73.020886L834.556401 17.469905 744.06561 107.9447C731.572538 120.437772 731.572538 140.705022 744.06561 153.198094 756.558682 165.691166 776.809935 165.691166 789.303007 153.198094L879.793798 62.707303 970.28459 153.198094C982.777661 165.691166 1003.028915 165.691166 1015.521987 153.198094 1028.015059 140.705022 1028.015059 120.437772 1015.521987 107.9447L925.031196 17.469905ZM680.9604 228.716395 700.411841 214.01584 672.354417 162.203983 654.246661 170.570023C633.995407 179.879841 620.03068 199.027353 617.407295 221.18216 614.78391 243.304975 623.869781 265.203843 641.369679 278.976615 710.009592 333.027947 735.603593 450.776349 735.603593 512.29793L735.603593 672.180458C735.603593 740.500445 620.382598 832.014996 511.736062 832.014996 404.033305 832.014996 287.66058 739.02879 287.66058 672.180458L287.66058 512.29793C287.66058 449.83257 318.613325 332.532063 385.093744 279.16857 402.385691 265.29982 411.247614 243.464938 408.544247 221.470093 405.840881 199.475248 391.924143 180.407717 371.800859 171.161884L90.810716 38.56896C83.196501 35.065781 64.096977 27.067656 64.096977 1.633617L64.096977-63.279169 671.842537-63.263173 671.842537-127.23218 64.048989-127.23218C28.745263-127.23218 0.111974-98.614887 0.111974-63.279169L0.111974 32.730329C0.111974 68.194017 64.048989 96.68334 64.048989 96.68334L345.039131 229.276263C255.556104 301.09943 223.675576 442.442303 223.675576 512.29793L223.675576 672.180458C223.675576 778.075639 370.457174 896 511.736062 896 652.998953 896 799.588596 778.075639 799.588596 672.180458L799.588596 512.29793C799.588596 435.49993 769.595626 298.476045 680.9604 228.716395Z"  horiz-adv-x="1026" />

    
    <glyph glyph-name="fenqixiangqing" unicode="&#58942;" d="M51.2 844.8m-51.2 0a0.8 0.8 0 1 0 102.4 0 0.8 0.8 0 1 0-102.4 0ZM992 819.2 256 819.2C236.8 819.2 224 832 224 844.8S236.8 883.2 256 883.2l736 0c19.2 0 32-12.8 32-32S1011.2 819.2 992 819.2zM51.2 384m-51.2 0a0.8 0.8 0 1 0 102.4 0 0.8 0.8 0 1 0-102.4 0ZM992 352 256 352C236.8 352 224 364.8 224 384S236.8 416 256 416l736 0C1011.2 416 1024 403.2 1024 384S1011.2 352 992 352zM51.2-76.8m-51.2 0a0.8 0.8 0 1 0 102.4 0 0.8 0.8 0 1 0-102.4 0ZM992-115.2 256-115.2c-19.2 0-32 12.8-32 32s12.8 32 32 32l736 0c19.2 0 32-12.8 32-32S1011.2-115.2 992-115.2z"  horiz-adv-x="1024" />

    
    <glyph glyph-name="guanbi" unicode="&#58998;" d="M0 896C0 330.460416 458.460416-128 1024-128L1024 896 0 896 0 896 0 896ZM608.127206 469.189018 734.960256 342.107238C744.888294 332.159744 744.83817 315.969152 734.84073 305.952128 724.773606 295.865242 708.687795 295.881472 698.756378 305.832371L571.923328 432.91415 445.090278 305.832371C435.162266 295.884877 419.003366 295.935078 409.005926 305.952128 398.938803 316.038989 398.955008 332.156339 408.886426 342.107238L535.719475 469.189018 408.886426 596.270797C398.958387 606.218291 399.008512 622.408883 409.005926 632.425907 419.07305 642.512794 435.158861 642.496563 445.090278 632.545664L571.923328 505.463885 698.756378 632.545664C708.684416 642.493158 724.843315 642.442957 734.84073 632.425907 744.907853 622.339046 744.891674 606.221696 734.960256 596.270797L608.127206 469.189018 608.127206 469.189018 608.127206 469.189018 608.127206 469.189018Z"  horiz-adv-x="1024" />

    
    <glyph glyph-name="jixuduihuan" unicode="&#58994;" d="M992 288l-960 0C12.8 288 0 275.2 0 256s12.8-32 32-32l883.2 0-230.4-230.4c-12.8-12.8-12.8-32 0-44.8C684.8-64 697.6-64 704-64s19.2 0 25.6 6.4l288 288C1024 243.2 1024 256 1024 268.8 1017.6 281.6 1004.8 288 992 288zM32 480l960 0C1011.2 480 1024 492.8 1024 512s-12.8 32-32 32L108.8 544l230.4 230.4c12.8 12.8 12.8 32 0 44.8S307.2 832 294.4 825.6L6.4 537.6C0 524.8 0 512 0 499.2 6.4 486.4 19.2 480 32 480z"  horiz-adv-x="1024" />

    
    <glyph glyph-name="gerenziliao1" unicode="&#58904;" d="M1204.14781 881.538063l-1079.600005 0C55.826239 881.538063 0 821.814764 0 748.227954l0-729.786552c0-73.586811 55.708256-133.305244 124.547806-133.305244L1204.14781-114.863842c68.721567 0 124.547806 59.718434 124.547806 133.305244l0 729.786552C1328.695616 821.814764 1272.869377 881.538063 1204.14781 881.538063L1204.14781 881.538063 1204.14781 881.538063 1204.14781 881.538063zM1272.137158 18.441402c0-31.135127-25.542529-73.462747-56.919702-73.462747L113.725071-55.021345c-31.50002 0-56.924567 42.328836-56.924567 73.462747L56.800504 748.352017c0 31.139992 25.542529 71.396235 56.924567 71.396235l1101.493601 0c31.50002 0 56.919702-40.256243 56.919702-71.396235L1272.138374 18.441402 1272.137158 18.441402 1272.137158 18.441402 1272.137158 18.441402zM1078.017584 602.394707l-225.01752 0c-12.529219 0-22.743798-9.364378-22.743798-21.043395l0-17.270399c0-11.679017 10.214579-21.043395 22.743798-21.043395l225.01752 0c12.647201 0 22.743798 9.364378 22.743798 21.043395l0 17.270399C1100.761382 593.030329 1090.546803 602.394707 1078.017584 602.394707L1078.017584 602.394707 1078.017584 602.394707 1078.017584 602.394707zM1078.017584 411.917985l-225.01752 0c-12.529219 0-22.743798-9.364378-22.743798-21.037314l0-15.085904c0-11.674152 10.214579-21.043395 22.743798-21.043395l225.01752 0c12.647201 0 22.743798 9.369243 22.743798 21.043395l0 15.085904C1100.761382 402.553607 1090.546803 411.917985 1078.017584 411.917985L1078.017584 411.917985 1078.017584 411.917985 1078.017584 411.917985zM1078.017584 224.122011l-225.01752 0c-12.529219 0-22.743798-9.488441-22.743798-21.043395l0-13.74553c0-11.674152 10.214579-21.03853 22.743798-21.03853l225.01752 0c12.647201 0 22.743798 9.364378 22.743798 21.03853l0 13.74553C1100.761382 214.63357 1090.546803 224.122011 1078.017584 224.122011L1078.017584 224.122011 1078.017584 224.122011 1078.017584 224.122011zM434.589108 571.254715c56.558458 0 102.536227-45.971688 102.536227-102.530145 0-27.366996-13.627548-55.224165-37.463593-76.509606-20.06913-18.002618-28.217197-45.853705-20.43524-71.638281 7.781957-25.666593 29.557572-44.519412 56.074366-48.168345 2.308558-0.36611 29.799618-5.10729 55.218083-18.002618 11.797-5.957491 20.919332-12.647201 26.392731-19.214064 4.865244-5.839509 5.839509-10.338643 5.839509-15.32795l0-26.75884L246.302961 193.104866l0 26.634777c0 5.112155 0 18.733621 31.990193 34.788925 25.300483 12.771265 52.543415 17.270399 54.851974 17.636508 26.75884 3.524869 48.534455 22.259706 56.558458 48.044281 8.030085 25.784575-0.117982 53.88379-20.311176 71.886408-23.836045 21.285441-37.463593 49.136529-37.463593 76.503524C332.052881 525.158964 378.03065 571.254715 434.589108 571.254715M432.522596 624.654413c-89.038825 0-161.161197-72.128454-161.161197-161.161197 0-47.802235 23.718063-90.739227 56.800504-120.296799 0 0-137.325152-19.336911-137.325152-113.47816l0-60.696348c0-13.863512 11.194926-25.053572 25.058438-25.053572l433.248733 0c13.869593 0 25.058438 11.188844 25.058438 25.053572l0 60.696348c0 93.166984-137.325152 113.47816-137.325152 113.47816 33.088522 29.557572 56.806585 72.494563 56.806585 120.296799C593.683792 552.525959 521.555339 624.654413 432.522596 624.654413L432.522596 624.654413 432.522596 624.654413 432.522596 624.654413 432.522596 624.654413zM432.522596 624.654413"  horiz-adv-x="1329" />

    
    <glyph glyph-name="abcsousuocixiangqing" unicode="&#59319;" d="M400 288c8.832 0 16 7.168 16 16v8.896c16.992-15.296 39.328-24.896 64-24.896 53.024 0 96 42.976 96 96s-42.976 96-96 96c-24.672 0-47.008-9.6-64-24.896v104.896c0 8.832-7.168 16-16 16s-16-7.168-16-16v-256c0-8.832 7.168-16 16-16zM480 448c35.328 0 64-28.672 64-64s-28.672-64-64-64-64 28.672-64 64 28.672 64 64 64zM701.952 288c6.336 0 12.768 0.672 19.104 1.984 8.608 1.792 14.112 10.208 12.352 18.912-1.76 8.672-10.208 14.112-18.752 12.448-39.456-8.192-76.224 23.136-76.224 62.656 0 39.552 36.704 70.848 76.192 62.688 8.544-1.696 16.992 3.776 18.752 12.448 1.792 8.672-3.744 17.12-12.352 18.912-6.304 1.28-12.736 1.952-19.072 1.952-52.544 0-95.296-43.072-95.296-96s42.752-96 95.296-96zM256 288c24.672 0 47.008 9.6 64 24.896v-8.896c0-8.832 7.168-16 16-16s16 7.168 16 16v160c0 8.832-7.168 16-16 16s-16-7.168-16-16v-8.896c-16.992 15.296-39.328 24.896-64 24.896-53.024 0-96-42.976-96-96s42.976-96 96-96zM256 448c35.328 0 64-28.672 64-64s-28.672-64-64-64-64 28.672-64 64 28.672 64 64 64zM736 160c53.024 0 96 42.976 96 96v352c0 53.024-42.976 96-96 96h-576c-53.024 0-96-42.976-96-96v-352c0-53.024 42.976-96 96-96h576zM96 256v352c0 35.328 28.672 64 64 64h576c35.328 0 64-28.672 64-64v-352c0-35.328-28.672-64-64-64h-576c-35.328 0-64 28.672-64 64zM912 608c-8.832 0-16-7.168-16-16v-432c0-35.328-28.672-64-64-64h-656c-8.832 0-16-7.168-16-16s7.168-16 16-16h656c53.024 0 96 42.976 96 96v432c0 8.832-7.168 16-16 16z"  horiz-adv-x="1024" />

    
    <glyph glyph-name="shanchuguanbiquxiaowubiankuang" unicode="&#59402;" d="M823.04 55.68 524.16 355.84l296.32 294.4c12.8 12.8 12.8 33.28 0 45.44-12.8 12.8-33.28 12.8-46.08 0L478.08 401.92 184.96 695.68c-12.8 12.8-33.28 12.8-45.44 0s-12.8-33.28 0-45.44l292.48-293.76-302.72-300.8c-12.8-12.8-12.8-33.28 0-45.44 12.8-12.8 33.28-12.8 46.08 0l302.72 300.16 299.52-300.16c12.8-12.8 33.28-12.8 45.44 0C835.2 22.4 835.2 42.88 823.04 55.68z"  horiz-adv-x="1024" />

    
    <glyph glyph-name="shuxingliebiaoxiangqing" unicode="&#59415;" d="M288 256C270.08 256 256 241.92 256 224 256 206.08 270.08 192 288 192 305.92 192 320 206.08 320 224 320 241.92 305.92 256 288 256zM288 640C270.08 640 256 625.92 256 608 256 590.08 270.08 576 288 576 305.92 576 320 590.08 320 608 320 625.92 305.92 640 288 640zM288 448C270.08 448 256 433.92 256 416 256 398.08 270.08 384 288 384 305.92 384 320 398.08 320 416 320 433.92 305.92 448 288 448zM768 832 192 832C121.6 832 64 774.4 64 704l0-576c0-70.4 57.6-128 128-128l576 0c70.4 0 128 57.6 128 128L896 704C896 774.4 838.4 832 768 832zM832 128c0-35.2-28.8-64-64-64L192 64c-35.2 0-64 28.8-64 64L128 704c0 35.2 28.8 64 64 64l576 0c35.2 0 64-28.8 64-64L832 128zM672 640l-256 0C398.08 640 384 625.92 384 608 384 590.08 398.08 576 416 576l256 0C689.92 576 704 590.08 704 608 704 625.92 689.92 640 672 640zM672 448l-256 0C398.08 448 384 433.92 384 416 384 398.08 398.08 384 416 384l256 0C689.92 384 704 398.08 704 416 704 433.92 689.92 448 672 448zM672 256l-256 0C398.08 256 384 241.92 384 224 384 206.08 398.08 192 416 192l256 0c17.92 0 32 14.08 32 32C704 241.92 689.92 256 672 256z"  horiz-adv-x="1024" />

    
    <glyph glyph-name="fayuangonggaoxiangqing" unicode="&#58896;" d="M852.559373 570.742125 597.416392 570.742125c-10.592242 0-19.182898-8.585539-19.182898-19.183921 0-10.592242 8.590656-19.177781 19.182898-19.177781l255.142981 0c10.592242 0 19.182898 8.585539 19.182898 19.177781C871.737154 562.156586 863.151615 570.742125 852.559373 570.742125L852.559373 570.742125zM852.559373 570.742125M852.559373 475.350544 597.416392 475.350544c-10.592242 0-19.182898-8.585539-19.182898-19.178805 0-10.592242 8.590656-19.182898 19.182898-19.182898l255.142981 0c10.592242 0 19.182898 8.590656 19.182898 19.182898C871.737154 466.765005 863.151615 475.350544 852.559373 475.350544L852.559373 475.350544zM852.559373 475.350544M852.559373 377.092683 597.416392 377.092683c-10.592242 0-19.182898-8.585539-19.182898-19.183921 0-10.592242 8.590656-19.177781 19.182898-19.177781l255.142981 0c10.592242 0 19.182898 8.585539 19.182898 19.177781C871.737154 368.507144 863.151615 377.092683 852.559373 377.092683L852.559373 377.092683zM852.559373 377.092683M852.559373 281.701103 597.416392 281.701103c-10.592242 0-19.182898-8.585539-19.182898-19.178805 0-10.592242 8.590656-19.182898 19.182898-19.182898l255.142981 0c10.592242 0 19.182898 8.590656 19.182898 19.182898C871.737154 273.115564 863.151615 281.701103 852.559373 281.701103L852.559373 281.701103zM852.559373 281.701103M900.498198 689.517275c19.515473 0 35.392068-15.876596 35.392068-35.392068l0-501.863129c0-19.515473-15.876596-35.392068-35.392068-35.392068L147.45433 116.87001c-19.515473 0-35.392068 15.876596-35.392068 35.392068L112.062262 654.125207c0 19.515473 15.876596 35.392068 35.392068 35.392068L900.498198 689.517275M900.498198 724.909343 147.45433 724.909343c-38.931684 0-70.784136-31.852452-70.784136-70.784136l0-501.863129c0-38.931684 31.853475-70.784136 70.784136-70.784136l753.044892 0c38.931684 0 70.784136 31.853475 70.784136 70.784136L971.283358 654.125207C971.282335 693.055868 939.430906 724.909343 900.498198 724.909343L900.498198 724.909343zM515.865028 424.990576 449.65507 424.990576c-7.511067 0-13.595646-6.116301-13.595646-13.650905l0-4.259c0-7.543813 6.085602-13.650905 13.595646-13.650905l66.209958 0c7.511067 0 13.595646 6.106068 13.595646 13.650905l0 4.259C529.461697 418.873252 523.376095 424.990576 515.865028 424.990576L515.865028 424.990576zM515.865028 424.990576M362.241184 542.13867c-20.591991-16.374946-63.686485-39.328727-94.698802-61.392232l-0.044002-0.020466c-0.354064-0.214894-0.708128-1.437745-1.061169-1.642406-3.670599-2.059915-5.313006-7.757684-25.228591-7.757684l-38.858006 0c-9.968026 0-16.160051-4.668323-16.160051-15.19405l0-93.573165c0-10.527774 5.676279-15.721053 16.160051-15.721053l39.018665 0c19.820418-0.031722 21.429055-5.686513 25.077142-7.748475 0.354064-0.202615 0.697895-1.426489 1.063215-1.64036l0.044002-0.021489c30.03506-22.063505 73.420173-46.809095 94.698802-62.507636 6.405897-4.731768 27.717272-13.049201 27.717272 16.193821L389.969713 527.191236C389.968689 556.443467 368.487446 547.096589 362.241184 542.13867L362.241184 542.13867zM362.241184 542.13867M423.3868 477.624331c3.51915-6.201236 10.483772-7.757684 15.569604-3.477194l54.42761 45.87584c5.085832 4.28049 6.352685 12.780071 2.843768 18.993586l-1.99647 3.508917c-3.508917 6.201236-10.483772 7.759731-15.561417 3.477194l-54.425563-45.864584c-5.085832-4.291746-6.363941-12.790304-2.844791-18.992563L423.3868 477.624331 423.3868 477.624331zM423.3868 477.624331M438.94617 344.0358c-5.085832 4.281513-12.050454 2.726088-15.569604-3.464915l-1.986237-3.50994c-3.51915-6.201236-2.230808-14.700817 2.843768-18.992563l54.425563-45.864584c5.085832-4.28049 12.051477-2.726088 15.560394 3.465938l1.99647 3.508917c3.508917 6.202259 2.230808 14.700817-2.843768 18.993586L438.94617 344.0358 438.94617 344.0358zM438.94617 344.0358"  horiz-adv-x="1024" />

    
    <glyph glyph-name="gerenzhongxindingdandaifukuan" unicode="&#58913;" d="M329.476594 523.491613c-5.955334 0-11.910668 2.271137-16.454989 6.815458-9.087618 9.087618-9.088642 23.823383 0 32.911002L592.031455 842.24021c9.087618 9.088642 23.823383 9.088642 32.911002 0.001024l229.808716-229.786189c4.366153-4.364105 6.817506-10.284624 6.817506-16.457037 0-6.172413-2.453401-12.092932-6.81853-16.456013l-49.248236-49.235948c-9.087618-9.086594-23.823383-9.086594-32.911002 0.003072s-9.08557 23.824407 0.004096 32.911002l32.788127 32.779935L608.489515 792.874219 345.932607 530.307071C341.38931 525.76275 335.432952 523.491613 329.476594 523.491613zM232.527322 523.487518c-3.971929 0-7.998128 1.017813-11.679253 3.158907-11.109933 6.462193-14.877071 20.707482-8.414879 31.817416L374.926973 837.815692c6.432498 11.058736 20.585631 14.850448 31.687373 8.490651l135.903668-77.883193c11.150892-6.390516 15.010186-20.61123 8.61967-31.762122s-20.61123-15.01121-31.763146-8.61967L403.53326 794.426538 252.665484 535.061303C248.344386 527.632495 240.543881 523.487518 232.527322 523.487518zM861.795997-81.56355 163.643687-81.56355c-64.160121 0-116.359401 52.19928-116.359401 116.359401l0 418.880327c0 64.160121 52.19928 116.358377 116.359401 116.358377l698.15231 0c64.160121 0 116.359401-52.198256 116.359401-116.358377l0-418.880327C978.154374-29.364271 925.956118-81.56355 861.795997-81.56355zM163.643687 523.490589c-38.496687 0-69.815436-31.318749-69.815436-69.815436l0-418.880327c0-38.496687 31.318749-69.815436 69.815436-69.815436l698.15231 0c38.496687 0 69.815436 31.318749 69.815436 69.815436l0 418.880327c0 38.496687-31.318749 69.815436-69.815436 69.815436L163.643687 523.490589zM791.980561 151.154228c-51.327892 0-93.086906 41.759014-93.086906 93.086906 0 51.328916 41.759014 93.08793 93.086906 93.08793s93.086906-41.759014 93.086906-93.08793C885.067467 192.913242 843.308453 151.154228 791.980561 151.154228zM791.980561 290.785099c-25.663434 0-46.542941-20.879507-46.542941-46.543965 0-25.663434 20.879507-46.542941 46.542941-46.542941s46.542941 20.879507 46.542941 46.542941C838.523502 269.905592 817.643995 290.785099 791.980561 290.785099z"  horiz-adv-x="1024" />

    
    <glyph glyph-name="gerenzhongxinwodezuji" unicode="&#58919;" d="M360.870091 604.234718c58.600035 37.930439 295.009178-11.953674 369.27985-119.563362 30.885615-44.747945 25.863106-144.073821-92.041446-257.796533C476.899778 71.290702 496.04675 5.794317 415.549395-25.251035c-90.688799-34.952772-215.501989 31.498965-217.762886 92.133602-5.033773 135.402953 87.984529 101.449563 134.710758 222.900078C386.574484 430.355557 240.590983 526.351525 360.870091 604.234718zM389.823499 802.907974c33.350279 0 60.383768-40.52105 60.383768-90.472744 0-49.976269-27.032465-90.473768-60.383768-90.473768-33.34004 0-60.372504 40.498523-60.372504 90.473768C329.450995 762.386924 356.484484 802.907974 389.823499 802.907974zM543.204065 776.159145c26.361773-4.340554 41.451827-41.111873 33.726072-82.110087-7.772858-40.998214-35.407409-70.723686-61.770206-66.383132-26.362797 4.340554-41.452851 41.089346-33.703544 82.08756C489.205693 750.774227 516.841269 780.477172 543.204065 776.159145zM662.244186 712.79771c26.794907-8.544921 37.975493-40.839501 24.976359-72.156201-13.021661-31.294174-45.29269-49.747927-72.065069-41.201982-26.81641 8.544921-37.99802 40.861004-24.998886 72.156201C603.178251 702.889903 635.426752 721.343656 662.244186 712.79771zM771.489133 619.825487c18.884839-10.613314 18.704622-36.793847-0.363505-58.452585-19.067103-21.657714-49.815508-30.588667-68.701371-19.952826-18.863336 10.635841-18.704622 36.793847 0.386032 58.451561C721.877393 621.530376 752.625798 630.460305 771.489133 619.825487zM818.963876 524.783847c13.272531-14.727573 8.318627-39.567746-11.090478-55.475942-19.385554-15.908196-45.860986-16.862524-59.133516-2.112423-13.272531 14.726549-8.317603 39.566722 11.090478 55.474918C779.215913 538.578596 805.693393 539.533948 818.963876 524.783847z"  horiz-adv-x="1024" />

    
    <glyph glyph-name="geren" unicode="&#58927;" d="M512-128C229.233778-128 0 101.233778 0 384 0 666.766222 229.233778 896 512 896 794.766222 896 1024 666.766222 1024 384 1024 101.233778 794.766222-128 512-128ZM512 839.111111C260.664889 839.111111 56.888889 635.363556 56.888889 384 56.888889 132.636444 260.664889-71.111111 512-71.111111 763.363556-71.111111 967.111111 132.636444 967.111111 384 967.111111 635.363556 763.363556 839.111111 512 839.111111ZM853.333333 184.888889 796.444444 184.888889C796.444444 263.424 732.757333 327.111111 654.222222 327.111111 575.658667 327.111111 512 263.424 512 184.888889L455.111111 184.888889C455.111111 261.745778 498.716444 328.305778 562.460444 361.500444 531.854222 387.584 512 425.955556 512 469.333333 512 547.868444 575.658667 611.555556 654.222222 611.555556 732.757333 611.555556 796.444444 547.868444 796.444444 469.333333 796.444444 425.955556 776.618667 387.584 745.984 361.500444 809.728 328.305778 853.333333 261.745778 853.333333 184.888889ZM654.222222 554.666667C607.089778 554.666667 568.888889 516.465778 568.888889 469.333333 568.888889 422.200889 607.089778 384 654.222222 384 701.354667 384 739.555556 422.200889 739.555556 469.333333 739.555556 516.465778 701.354667 554.666667 654.222222 554.666667ZM199.111111 384 455.111111 384 455.111111 327.111111 199.111111 327.111111 199.111111 384ZM199.111111 526.222222 455.111111 526.222222 455.111111 469.333333 199.111111 469.333333 199.111111 526.222222ZM398.222222 184.888889 199.111111 184.888889 199.111111 241.777778 398.222222 241.777778 398.222222 184.888889Z"  horiz-adv-x="1024" />

    
    <glyph glyph-name="204" unicode="&#58910;" d="M512 765.248l323.776-762.496-315.52 220.352-332.032-220.352L512 765.248M512 828.544c-25.408 0-48.32-15.168-58.24-38.528L129.984 27.52c-10.944-25.728-3.712-55.552 17.792-73.408 11.648-9.664 26.048-14.592 40.448-14.592 12.16 0 24.32 3.456 35.008 10.56l296.128 196.48 280.128-195.648c10.88-7.616 23.616-11.392 36.224-11.392 14.144 0 28.288 4.736 39.872 14.144 21.952 17.792 29.44 47.936 18.368 73.92L570.304 789.952C560.32 813.312 537.408 828.544 512 828.544L512 828.544z"  horiz-adv-x="1024" />

    
    <glyph glyph-name="105" unicode="&#58920;" d="M346.5 36.175l-85.675-2.05L260.25 119.875C260.25 48.8 277.3 36.175 346.5 36.175zM371.3125 109.4125l-0.3375 463.3875c0 21.2625 16.3875 38.4875 36.6 38.4875 20.2125 0 36.6-17.225 36.6-38.4875l0.3375-463.3875c0-21.2625-16.3875-38.4875-36.6-38.4875C387.7 70.925 371.3125 88.1625 371.3125 109.4125zM567.6875 109.4125l-0.3375 463.3875c0 21.2625 16.3875 38.4875 36.6 38.4875 20.2125 0 36.6-17.225 36.6-38.4875l0.3375-463.3875c0-21.2625-16.3875-38.4875-36.6-38.4875C584.0625 70.925 567.6875 88.1625 567.6875 109.4125zM677.7 36.175c69.2 0 86.25 12.625 86.25 83.7125l-0.575-85.7625L677.7 36.175zM884.275 660.4875l-356.1125-0.1625c-0.5625-0.025-1.0875-0.15-1.65-0.15-0.5625 0-1.075 0.125-1.625 0.15l-37.7375-0.0125c-0.4875-0.0125-0.95-0.125-1.4375-0.125-0.4875 0-0.9375 0.1125-1.425 0.125l-224.3375-0.1 0.3-626.5875 503.975 0.2875-0.3125 538.9625c0 21.1 16.3875 38.2 36.6 38.2 20.2125 0 36.6-17.1 36.6-38.2l0.3125-533.3875c-0.6875-43.4625-33.325-78.5-73.6125-78.5l-36.875 0 0-0.2625-484.1125-0.2875c-30.85 7.5625-53.85 34.4125-55.7625 67.1l-0.3 632.6375-47.0375-0.025c-21.6 0-39.1 16.4625-39.1 36.7625s17.5125 36.7625 39.1 36.7625l82.65 0.0375c0.325 0.0125 0.6375 0.1 0.975 0.1 0.325 0 0.6375-0.1 0.9625-0.1l220.425 0.1-0.1875 37.2625c0 20.15 18.2625 36.5 40.8 36.5 9.025 0 31.775 0 40.8 0 22.5375 0 40.8-16.3375 40.8-36.5l0.1875-37.2 317.1375 0.15c21.6 0 39.1125-16.4625 39.1125-36.775C923.375 676.95 905.875 660.4875 884.275 660.4875z"  horiz-adv-x="1024" />

    
    <glyph glyph-name="xiazai16" unicode="&#58902;" d="M768 512C732.672 512 704 483.328 704 448 704 412.672 732.672 384 768 384 803.328 384 832 412.672 832 448 832 483.328 803.328 512 768 512L768 512ZM512 64C474.624 64 438.528 68.352 403.84 75.744L253.184-14.816 255.2 133.632C139.712 203.072 64 317.888 64 448 64 660.064 264.576 832 512 832 759.424 832 960 660.064 960 448 960 235.904 759.424 64 512 64L512 64ZM512 896C229.248 896 0 695.392 0 448 0 306.592 75.04 180.672 192 98.592L192-128 416.288 8.096C447.328 2.976 479.264 0 512 0 794.752 0 1024 200.576 1024 448 1024 695.392 794.752 896 512 896L512 896ZM256 512C220.672 512 192 483.328 192 448 192 412.672 220.672 384 256 384 291.328 384 320 412.672 320 448 320 483.328 291.328 512 256 512L256 512ZM512 512C476.672 512 448 483.328 448 448 448 412.672 476.672 384 512 384 547.328 384 576 412.672 576 448 576 483.328 547.328 512 512 512L512 512Z"  horiz-adv-x="1024" />

    
    <glyph glyph-name="shanchu4" unicode="&#59024;" d="M980.151134 582.179681c-26.653233 60.184719-62.764064 113.491184-108.332494 161.638959C826.25021 790.246851 770.3644 826.357683 710.179681 853.010915c-62.764064 26.653233-128.107473 41.269521-197.74979 41.269521-67.922754 0-134.985726-14.616289-197.74979-41.269521-60.184719-26.653233-113.491184-62.764064-161.638959-108.332494C105.753149 698.25021 69.642317 642.3644 42.989085 582.179681c-26.653233-62.764064-41.269521-128.107473-41.269521-197.74979 0-67.922754 14.616289-134.985726 41.269521-197.74979 26.653233-60.184719 62.764064-113.491184 108.332494-161.638959 45.56843-45.56843 101.45424-82.539043 161.638959-108.332494 62.764064-26.653233 128.107473-41.269521 197.74979-41.269521 67.922754 0 134.985726 14.616289 197.74979 41.269521 60.184719 26.653233 113.491184 62.764064 161.638959 108.332494 45.56843 45.56843 82.539043 101.45424 108.332494 161.638959 26.653233 62.764064 41.269521 128.107473 41.269521 197.74979C1021.420655 451.492863 1006.804366 519.415617 980.151134 582.179681zM738.552477 125.6356 514.149454 350.038623 294.04534 130.794291l-33.531486 33.531486 220.104114 220.104114L255.355164 608.832914l33.531486 33.531486 224.403023-224.403023L734.253568 638.065491l33.531486-33.531486L547.68094 384.429891l224.403023-224.403023L738.552477 125.6356z"  horiz-adv-x="1024" />

    
    <glyph glyph-name="guojijiudianchanpin" unicode="&#59035;" d="M72.971453 64.494129M990.672452 64.494129M124.351658-38.516989M926.206208-38.516989M167.526993 82.977086M80.826352 680.870338c0 61.609173 49.941436 111.550609 111.550609 111.550609l185.916317 0c61.609173 0 111.550609-49.941436 111.550609-111.550609l0-241.677295L192.37696 439.193043c-61.609173 0-111.550609 49.940412-111.550609 111.550609L80.826352 680.870338zM564.207547 680.870338c0 61.609173 49.940412 111.550609 111.551632 111.550609l185.918363 0c61.606103 0 111.548562-49.941436 111.548562-111.550609l0-130.127709c0-61.61122-49.942459-111.550609-111.548562-111.550609L564.207547 439.19202 564.207547 680.870338zM80.826352 253.246027c0 61.61122 49.941436 111.547539 111.550609 111.547539l297.466925 0 0-241.701854c0-61.610196-49.941436-111.549585-111.550609-111.549585L192.37696 11.542126c-61.609173 0-111.550609 49.939389-111.550609 111.549585L80.826352 253.246027zM661.015224 364.795557c-43.997969 0-79.664787-41.610788-79.664787-92.942785 0-43.951201 26.148271-80.769039 61.285249-90.449475l-13.188058-214.975647c-0.891396-14.571121 10.325-26.506029 24.933095-26.506029l13.277998 0c14.611094 0 25.82549 11.934908 24.933095 26.506029l-13.187059 214.975647c35.136178 9.680437 61.28325 46.498274 61.28325 90.449475 0 51.333996-35.665619 92.942785-79.662789 92.942785L661.015224 364.795557 661.015224 364.795557zM928.769886 364.795557l-22.126798-132.771581-16.597747 0-11.0625 132.771581-11.067496 0-11.060501-132.771581-16.597747 0-22.127997 132.771581-11.0615 0 0-172.608571c0-7.332029 5.949966-13.282994 13.280995-13.282994l34.576557 0-13.032164-212.484336c-0.891396-14.575118 10.322002-26.506029 24.928898-26.506029l13.280995 0c14.609095 0 25.82529 11.930911 24.933895 26.506029l-13.036961 212.484336 34.579355 0c7.332029 0 13.277998 5.950965 13.277998 13.282994l0 172.608571-11.0615 0L928.769886 364.795557z"  horiz-adv-x="1024" />

    
    <glyph glyph-name="geren13" unicode="&#58929;" d="M512-128C229.233778-128 0 101.233778 0 384 0 666.766222 229.233778 896 512 896 794.766222 896 1024 666.766222 1024 384 1024 101.233778 794.766222-128 512-128ZM512 839.111111C260.664889 839.111111 56.888889 635.363556 56.888889 384 56.888889 132.636444 260.664889-71.111111 512-71.111111 763.363556-71.111111 967.111111 132.636444 967.111111 384 967.111111 635.363556 763.363556 839.111111 512 839.111111ZM853.333333 184.888889 796.444444 184.888889C796.444444 263.424 732.757333 327.111111 654.222222 327.111111 575.658667 327.111111 512 263.424 512 184.888889L455.111111 184.888889C455.111111 261.745778 498.716444 328.305778 562.460444 361.500444 531.854222 387.584 512 425.955556 512 469.333333 512 547.868444 575.658667 611.555556 654.222222 611.555556 732.757333 611.555556 796.444444 547.868444 796.444444 469.333333 796.444444 425.955556 776.618667 387.584 745.984 361.500444 809.728 328.305778 853.333333 261.745778 853.333333 184.888889ZM654.222222 554.666667C607.089778 554.666667 568.888889 516.465778 568.888889 469.333333 568.888889 422.200889 607.089778 384 654.222222 384 701.354667 384 739.555556 422.200889 739.555556 469.333333 739.555556 516.465778 701.354667 554.666667 654.222222 554.666667ZM199.111111 384 455.111111 384 455.111111 327.111111 199.111111 327.111111 199.111111 384ZM199.111111 526.222222 455.111111 526.222222 455.111111 469.333333 199.111111 469.333333 199.111111 526.222222ZM398.222222 184.888889 199.111111 184.888889 199.111111 241.777778 398.222222 241.777778 398.222222 184.888889Z"  horiz-adv-x="1024" />

    
    <glyph glyph-name="geren7" unicode="&#58943;" d="M409.617536 327.496528 45.526997 327.496528C20.375374 327.496528 0.00768 307.160833 0.00768 282.041209l0-364.330535c0-25.087624 20.367694-45.439318 45.519317-45.439318l364.090539 0c25.119623 0 45.503317 20.335695 45.503317 45.439318L455.120853 282.041209C455.104853 307.160833 434.737159 327.496528 409.617536 327.496528zM409.617536 896 45.526997 896C20.375374 896 0.00768 875.648305 0.00768 850.512682l0-364.538532c0-25.119623 20.367694-45.487318 45.519317-45.487318l364.090539 0c25.119623 0 45.503317 20.367694 45.503317 45.487318L455.120853 850.512682C455.104853 875.648305 434.737159 896 409.617536 896zM364.098219 554.437123c0-12.575811-10.191847-22.735659-22.767658-22.735659L91.030315 531.701464c-12.575811 0-22.751659 10.159848-22.751659 22.735659L68.278656 805.041364c0 12.575811 10.191847 22.735659 22.751659 22.735659l250.300245 0c12.575811 0 22.767658-10.175847 22.767658-22.735659L364.098219 554.437123zM978.489003 896 614.398464 896c-25.135623 0-45.519317-20.351695-45.519317-45.487318l0-364.538532c0-25.119623 20.367694-45.487318 45.519317-45.487318l364.090539 0c25.103623 0 45.503317 20.367694 45.503317 45.487318L1023.99232 850.512682C1023.99232 875.648305 1003.608626 896 978.489003 896zM978.489003 327.496528 614.398464 327.496528c-25.135623 0-45.519317-20.335695-45.519317-45.455318l0-364.538532c0-25.119623 20.367694-45.503317 45.519317-45.503317l364.090539 0C1003.608626-127.98464 1023.99232-107.616946 1023.99232-82.497323L1023.99232 282.041209C1023.99232 307.160833 1003.608626 327.496528 978.489003 327.496528z"  horiz-adv-x="1024" />

    
    </font>
</defs>
</svg>
